<svg width="24" height="28" viewBox="0 0 24 28" fill="none" xmlns="http://www.w3.org/2000/svg">
<path d="M16.9554 27.9992H6.47223C4.29243 27.9992 2.51416 26.3955 2.51416 24.4297V8.04356C2.51416 7.61677 2.90136 7.26758 3.37461 7.26758C3.84785 7.26758 4.23505 7.61677 4.23505 8.04356V24.4426C4.23505 25.5549 5.23892 26.4602 6.47223 26.4602H16.9554C18.1887 26.4602 19.1925 25.5549 19.1925 24.4426V8.04356C19.1925 7.61677 19.5797 7.26758 20.053 7.26758C20.5262 7.26758 20.9134 7.61677 20.9134 8.04356V24.4426C20.8991 26.4085 19.1352 27.9992 16.9554 27.9992Z" fill="#504F53"/>
<path d="M8.83896 24.1341C8.36572 24.1341 7.97852 23.7849 7.97852 23.3581V7.83848C7.97852 7.41169 8.36572 7.0625 8.83896 7.0625C9.31221 7.0625 9.69941 7.41169 9.69941 7.83848V23.3581C9.69941 23.7849 9.31221 24.1341 8.83896 24.1341Z" fill="#504F53"/>
<path d="M15.1485 24.1341C14.6753 24.1341 14.2881 23.7849 14.2881 23.3581V7.83848C14.2881 7.41169 14.6753 7.0625 15.1485 7.0625C15.6218 7.0625 16.009 7.41169 16.009 7.83848V23.3581C16.009 23.7849 15.6218 24.1341 15.1485 24.1341Z" fill="#504F53"/>
<path d="M23.3656 4.70762C23.2222 4.66882 20.4688 3.99631 16.1666 3.68591C15.9658 1.61663 14.0441 0 11.7066 0C9.35468 0 7.41866 1.6425 7.24657 3.72471C3.23115 4.04804 0.764579 4.68176 0.621171 4.72056C0.162266 4.83695 -0.0958817 5.26374 0.0331853 5.6776C0.162252 6.09146 0.649825 6.32425 1.09439 6.20785C1.13741 6.19492 5.4683 5.09561 11.893 5.09561C18.3176 5.09561 22.8637 6.19492 22.9067 6.20785C22.9784 6.23372 23.0645 6.23372 23.1362 6.23372C23.5091 6.23372 23.8532 6.00093 23.9679 5.66467C24.097 5.25081 23.8245 4.82402 23.3656 4.70762ZM11.9073 3.53072C10.8891 3.53072 9.91398 3.55658 8.99617 3.59538C9.22562 2.43141 10.3442 1.53903 11.7066 1.53903C13.0546 1.53903 14.1875 2.41848 14.417 3.58245C13.6282 3.55658 12.7821 3.53072 11.9073 3.53072Z" fill="#504F53"/>
</svg>
