<svg width="178" height="181" viewBox="0 0 178 181" fill="none" xmlns="http://www.w3.org/2000/svg">
<path d="M131.99 31.1541C131.519 29.9274 130.789 28.9927 129.454 28.7729C127.818 28.5054 126.178 28.3517 124.55 28.6638C123.223 28.9205 121.924 29.354 120.614 29.7091V29.9089C122.544 30.533 123.309 32.1809 123.766 34.0855C123.94 34.8142 124.064 35.5551 124.217 36.2899C124.536 37.8363 124.846 39.4043 125.663 40.7432C126.983 42.9076 128.351 45.0366 129.748 47.141C131 49.0272 132.294 50.878 132.941 53.1362C133.077 53.6081 133.164 54.0985 133.298 54.6934C133.337 53.9063 133.402 53.2361 133.396 52.5689C133.356 47.5146 133.288 42.4602 133.261 37.4074C133.25 35.2169 132.755 33.1509 131.99 31.1541Z" fill="#ED1C24"/>
<path d="M138.569 28.645C137.356 28.7803 136.295 29.1845 135.665 30.4174C134.938 31.8455 134.433 33.398 134.273 34.9875C134.026 37.4086 133.967 39.8589 133.931 42.297C133.876 45.8003 133.912 49.3051 133.919 52.8099C133.92 53.3664 133.968 53.9244 133.994 54.4824C134.477 51.5909 136.057 49.3497 137.599 47.0854C138.559 45.6773 139.521 44.2677 140.448 42.835C141.422 41.3347 142.298 39.7698 142.711 37.9636C143.029 36.5785 143.285 35.1766 143.621 33.7977C143.96 32.4158 144.533 31.1737 145.708 30.3897C146.015 30.1837 146.359 30.0469 146.688 29.8794C146.692 29.8348 146.694 29.7902 146.697 29.7472C145.68 29.4367 144.669 29.0846 143.64 28.8233C141.967 28.3975 140.269 28.4574 138.569 28.645Z" fill="#ED1C24"/>
<path d="M133.972 78.6399C133.968 79.7913 133.932 80.9426 133.922 82.094C133.921 82.2339 133.998 82.3738 134.036 82.5137C134.158 82.4307 134.321 82.3769 134.395 82.2585C134.814 81.5837 135.241 80.9134 135.611 80.2079C136.718 78.1111 137.307 75.7915 138.01 73.5225C138.497 71.9515 138.964 70.3636 139.821 68.9678C140.306 68.1746 140.813 67.3891 141.735 67.1001C142.377 66.9002 142.386 66.8849 142.338 66.1516C142.156 63.3508 141.444 60.7083 139.892 58.4579C138.718 56.7577 137.313 55.2405 136.005 53.6495C135.895 53.5173 135.734 53.4281 135.584 53.3451C135.33 53.2052 135.079 53.2483 134.987 53.5557C134.67 54.6148 134.227 55.6678 134.115 56.7577C133.951 58.3533 134.017 59.9766 134.012 61.5892C134.002 64.6313 134.009 67.6719 134.009 70.714H133.975C133.975 73.355 133.981 75.9974 133.972 78.6399Z" fill="#ED1C24"/>
<path d="M133.343 58.8065C133.292 58.8065 133.294 57.0695 133.16 56.2363C133.022 55.3709 132.667 54.5423 132.383 53.7076C132.216 53.2157 131.969 53.1373 131.565 53.4171C131.401 53.5324 131.251 53.6815 131.119 53.8398C130.564 54.4962 130.017 55.1603 129.474 55.8274C128.883 56.5484 128.282 57.2647 127.712 58.0072C126.926 59.034 126.42 60.2346 125.956 61.4628C125.352 63.0584 125.053 64.7171 124.968 66.4326C124.951 66.7908 125.071 66.9737 125.389 67.0444C126.028 67.1874 126.508 67.5901 126.923 68.1251C128.036 69.5593 128.584 71.2887 129.132 73.0196C129.671 74.7197 130.179 76.4306 130.769 78.1093C131.295 79.605 132.005 81.0085 132.917 82.2797C132.993 82.3873 133.135 82.4396 133.247 82.5195C133.298 82.3858 133.387 82.2536 133.39 82.1199C133.397 81.7986 133.346 81.4773 133.346 81.156C133.343 73.7052 133.343 66.2574 133.343 58.8065Z" fill="#ED1C24"/>
<path d="M148.879 44.8342L148.814 43.0679H148.81C148.801 42.9557 148.78 42.8312 148.74 42.6882C148.631 42.2747 148.502 41.8674 148.368 41.4646C147.653 39.3386 146.434 37.6231 144.732 36.3211C143.999 35.7616 143.65 35.9307 143.49 36.8714C143.252 38.2857 142.89 39.6661 142.225 40.9066C141.642 41.9903 140.941 42.9987 140.291 44.0394L139.353 45.6996C138.299 47.4474 137.24 49.1922 136.191 50.9446C135.829 51.5456 135.825 52.1528 136.228 52.7447C137.44 54.5324 138.859 56.0804 140.62 57.2364C141.94 58.1049 143.291 58.0649 144.636 57.3455C146.086 56.5662 146.995 55.2226 147.705 53.7023C148.682 51.6087 148.965 49.3551 148.98 46.685C148.96 46.3053 148.928 45.5705 148.879 44.8342Z" fill="#ED1C24"/>
<path d="M130.796 53.1614C131.552 52.1484 131.608 51.7334 130.966 50.6389C130 48.9956 128.987 47.3861 128.003 45.7552L127.238 44.3394L127.176 44.3302C127.135 44.2272 127.077 44.115 126.99 43.9858C126.5 43.2357 125.975 42.507 125.519 41.7323C124.608 40.1874 124.074 38.478 123.787 36.6733C123.677 35.9939 123.341 35.834 122.788 36.1814C122.555 36.3275 122.334 36.4981 122.125 36.6795C120.353 38.2213 119.223 40.2151 118.599 42.567C118.548 42.7653 118.517 42.9267 118.508 43.0666H118.507L118.438 44.8636C118.392 45.5676 118.36 46.2732 118.32 46.9834C118.355 47.6536 118.372 48.3285 118.426 49.0002C118.613 51.3614 119.304 53.5288 120.611 55.4396C121.415 56.6125 122.471 57.4164 123.782 57.7715C125.058 58.119 126.183 57.6393 127.227 56.883C128.621 55.8746 129.75 54.5634 130.796 53.1614Z" fill="#ED1C24"/>
<path d="M148.191 53.7432C148.149 53.7309 148.106 53.7186 148.065 53.7079C148.001 53.8493 147.945 53.9968 147.872 54.1337C147.447 54.9468 147.057 55.7877 146.574 56.5594C146.079 57.351 145.47 58.0612 144.566 58.3164C143.334 58.6607 142.124 58.5639 140.946 58.0336C140.841 57.9859 140.729 57.9598 140.522 57.8891C141.972 60.7467 142.696 63.7335 143.234 66.9355C143.545 66.7065 143.768 66.5774 143.95 66.3991C144.864 65.5121 145.489 64.4022 146.016 63.2186C147.151 60.673 147.694 57.949 148.041 55.1697C148.099 54.6947 148.142 54.2182 148.191 53.7432Z" fill="#ED1C24"/>
<path d="M126.734 57.9209C126.6 57.9531 126.543 57.9562 126.496 57.9808C125.664 58.3759 124.792 58.5557 123.887 58.5019C122.906 58.4451 121.935 58.2514 121.309 57.3321C120.657 56.3744 120.084 55.3506 119.49 54.3484C119.38 54.1639 119.33 53.938 119.255 53.7304C119.218 53.7397 119.184 53.7473 119.149 53.755C119.144 53.8288 119.127 53.9041 119.139 53.9748C119.485 56.2745 119.71 58.5926 120.422 60.82C120.951 62.4725 121.575 64.0543 122.553 65.4501C122.842 65.8621 123.192 66.2326 123.554 66.5723C123.969 66.9658 124.103 66.8966 124.201 66.3248C124.209 66.2787 124.213 66.2326 124.22 66.188C124.607 63.9021 125.148 61.6655 126.037 59.5411C126.255 59.02 126.483 58.5035 126.734 57.9209Z" fill="#ED1C24"/>
<path d="M136.525 28.5628L138.546 28.0355C139.801 28.0816 141.057 28.0678 142.313 28.0893C142.376 28.0908 142.439 28.0586 142.61 28.0124C142.427 27.891 142.327 27.8264 142.228 27.7619C141.463 27.2684 140.688 26.7904 139.933 26.2785C138.97 25.6267 138.513 24.6567 138.461 23.4331C138.415 22.377 138.316 21.321 138.277 20.2634C138.217 18.6754 137.794 17.2135 137.063 15.8485C136.999 15.7271 136.901 15.6287 136.817 15.5195C136.771 15.5365 136.724 15.5534 136.677 15.5718C136.842 17.6517 137.005 19.7346 137.169 21.8236C137.139 21.6945 137.095 21.57 137.08 21.4393C136.826 19.4348 136.585 17.4272 136.316 15.4227C136.284 15.2013 136.147 14.9154 135.978 14.8094C134.576 13.9208 133.141 13.9039 131.678 14.6679C131.244 14.8924 131.109 15.2075 131.085 15.7102C130.981 17.9699 130.698 20.205 130.159 22.3939C130.102 22.623 130.006 22.8397 129.929 23.0642C130.43 19.8729 130.753 16.0668 130.475 15.5042C130.356 15.6748 130.234 15.8208 130.145 15.9869C129.593 17.0091 129.233 18.1051 129.137 19.2872C129.012 20.7845 128.94 22.2879 128.796 23.7836C128.697 24.7889 128.361 25.702 127.53 26.28C126.816 26.7765 126.081 27.2346 125.352 27.7081C125.223 27.7911 125.09 27.8633 124.875 27.9863C125.046 28.0386 125.121 28.0832 125.196 28.0832C126.529 28.0616 127.863 28.0417 129.196 28.0094L129.193 28.014L130.943 28.5812C132.731 30.1046 133.458 32.1383 133.667 34.5625C133.982 33.3358 134.193 32.2551 134.542 31.2283C134.903 30.1599 135.638 29.3483 136.525 28.5628Z" fill="#8F8E94"/>
<path d="M125.598 14.592C125.76 14.9655 125.921 15.3498 126.145 15.6803C126.243 15.8233 126.503 15.8956 126.686 15.8894H127.277C127.336 16.3629 127.389 16.8379 127.446 17.3129C127.543 18.1491 127.596 18.9915 127.688 19.8308C127.755 20.4349 128.153 20.727 128.661 21.0052C128.696 20.8008 128.72 20.6563 128.743 20.5118C128.879 19.6033 128.967 18.681 129.164 17.7879C129.429 16.5827 129.816 15.3975 130.779 14.6243C132.439 13.2931 134.216 13.2193 136.071 14.1739C137.029 14.6658 137.577 15.5312 137.913 16.5366C138.223 17.4666 138.389 18.4581 138.585 19.4296C138.685 19.9307 138.714 20.4488 138.785 21.0391C139.243 20.7639 139.624 20.4949 139.705 20.0014C139.837 19.2036 139.879 18.3889 139.984 17.585C140.059 17.0208 140.13 16.4566 140.204 15.8925L140.761 15.8956C140.954 15.8141 141.16 15.7526 141.337 15.6419C141.422 15.5866 141.463 15.4436 141.513 15.3314C141.925 14.3922 142.335 13.4514 142.743 12.5106C142.79 12.3999 142.816 12.2785 142.837 12.2047C142.848 11.7897 142.234 10.9949 141.886 10.978L140.953 10.5568L140.95 10.5676C141.055 9.14259 141.016 7.71606 140.727 6.27723C139.929 2.30662 136.554 -0.363514 132.89 0.136078C131.392 0.338991 130.045 0.949261 128.934 2.0868C127.188 3.87765 126.531 6.16963 126.443 8.69219C126.419 9.36703 126.447 10.0342 126.507 10.6998L125.601 10.978C125.054 10.9949 124.516 11.9941 124.742 12.5383C125.022 13.2254 125.303 13.9126 125.598 14.592Z" fill="#8F8E94"/>
<path d="M125.084 68.2027C125.036 68.1366 124.974 68.0766 124.897 68.0213L124.894 68.0182H124.893C124.798 67.9491 124.693 67.8845 124.602 67.823C124.508 67.7584 124.37 67.7692 124.171 67.7308C122.566 67.8399 121.216 68.6623 120.208 70.1104C119.464 71.1772 119.098 72.4592 118.804 73.7428C118.482 75.1509 118.23 76.579 117.968 78.004C117.938 78.1715 118.041 78.3683 118.083 78.5527C118.251 78.4805 118.484 78.4605 118.577 78.3252C118.925 77.8318 119.282 77.3291 119.537 76.7757C119.62 76.5928 119.709 76.4129 119.795 76.2331L121.253 74.6528L122.081 74.081C122.363 73.9042 122.651 73.7413 122.957 73.629C124.09 73.2232 125.264 72.9327 126.428 72.6283C126.915 72.5007 127.045 72.4254 126.916 71.9151C126.709 71.0942 126.445 70.2856 126.169 69.4878C126.089 69.2603 125.997 69.1097 125.884 69.0297L125.894 68.9897L125.084 68.2027Z" fill="#8F8E94"/>
<path d="M121.195 88.4104C121.149 86.8978 120.955 85.416 120.119 84.0832C119.729 83.4606 119.227 82.9503 118.501 82.7105C117.632 82.4215 117.12 82.6536 116.995 83.5221C116.774 85.0609 116.575 86.6088 116.482 88.1614C116.364 90.086 116.289 92.0183 116.329 93.9459C116.391 96.9081 116.443 99.8811 116.728 102.831C117.073 106.431 117.65 110.011 118.134 113.601C118.182 113.965 118.264 114.326 118.335 114.691L119.076 119.144C119.075 119.232 119.076 119.318 119.075 119.405C119.051 121.227 118.855 123.042 118.81 124.864C118.787 125.768 118.909 126.681 119.017 127.585C119.064 127.971 119.242 128.343 119.361 128.721C119.41 128.715 119.458 128.707 119.508 128.701C119.546 128.621 119.59 128.544 119.625 128.462C120.266 126.896 120.829 125.293 121.562 123.769C122.99 120.804 123.706 117.684 123.829 114.405C123.929 111.828 124.022 109.255 124.141 106.68C124.178 105.895 124.309 105.115 124.361 104.33C124.493 102.344 124.645 100.358 124.708 98.37C124.745 97.2309 124.662 96.0857 124.569 94.9482C124.52 94.3395 124.296 94.195 123.71 94.3779C123.337 94.4947 122.969 94.63 122.604 94.776C121.963 95.0035 120.428 95.4386 120.408 94.4025C120.874 92.4364 121.257 90.4549 121.195 88.4104Z" fill="#8F8E94"/>
<path d="M123.435 128.332C123.631 128.172 123.767 128.066 123.896 127.951C124.277 127.606 124.633 127.227 125.04 126.921C125.436 126.624 125.511 126.461 125.244 126.025C124.53 124.849 123.947 123.617 123.632 122.265C123.617 122.197 123.573 122.134 123.479 121.942C123.041 122.837 122.648 123.636 122.255 124.435C122.097 124.758 122.185 125.032 122.339 125.347C122.643 125.977 122.895 126.635 123.146 127.29C123.264 127.599 123.326 127.929 123.435 128.332Z" fill="#8F8E94"/>
<path d="M127.828 73.75C127.638 73.0106 127.274 72.7892 126.459 72.9014C124.742 73.1381 123.317 73.8929 122.104 74.9828C120.294 76.6092 119.19 78.6352 118.378 80.8104C118.145 81.4345 118.266 81.6989 118.925 82.0401C120.002 82.5951 120.699 83.4221 121.034 84.4951C121.537 86.1045 121.815 87.7478 121.737 89.4157C121.682 90.6301 121.507 91.8398 121.385 93.0512C121.256 93.8982 121.683 94.2194 122.555 93.9627C124.801 93.3002 126.929 92.4071 128.863 91.1696C130.637 90.0352 132.15 88.687 133.062 86.8285C133.541 85.8478 133.523 85.0438 132.834 84.0846C130.546 80.8949 128.787 77.4777 127.828 73.75Z" fill="#8F8E94"/>
<path d="M120.087 69.4668C120.384 69.1671 120.615 68.7935 120.931 68.5199C121.451 68.0695 122.016 67.676 122.586 67.2425C122.02 66.4939 121.454 65.733 120.873 64.9859C120.633 64.6784 120.37 64.6846 120.299 65.0028C119.991 66.3955 119.706 67.7944 119.439 69.1978C119.413 69.3346 119.53 69.5914 119.644 69.6406C119.753 69.6897 119.978 69.576 120.087 69.4668Z" fill="#8F8E94"/>
<path d="M121.649 125.964C121.498 125.968 121.301 126.185 121.218 126.357C120.784 127.249 120.079 128.213 119.676 129.121C118.705 131.316 118.144 132.305 117.423 135.032C117.015 136.574 116.513 138.037 116.369 139.464C116.281 140.354 116.303 142.183 116.361 142.888C116.495 144.586 117.609 145.485 119.097 145.915C120.225 146.24 120.999 145.738 121.087 144.532C121.192 143.102 121.16 141.662 121.283 140.235C121.49 137.873 121.738 135.511 122.037 133.161C122.251 131.481 122.553 129.818 122.553 128.11C122.553 127.464 122.388 126.889 122.093 126.343C122.002 126.174 121.796 125.961 121.649 125.964Z" fill="#8F8E94"/>
<path d="M131.787 90.9879C131.793 90.9172 131.794 90.8465 131.788 90.7773C131.752 90.3838 131.323 90.204 131.058 90.4914C130.348 91.2631 129.402 91.6751 128.461 92.0671C126.904 92.7142 126.185 93.9378 125.961 95.4551C125.704 97.1921 125.551 98.9476 125.394 100.698C125.208 102.774 125.049 104.854 124.914 106.933C124.798 108.75 124.647 110.57 124.664 112.391C124.665 112.558 124.671 112.726 124.675 112.892L124.672 112.904L123.994 120.216C123.858 120.676 123.801 121.153 123.891 121.646C124.213 123.449 125.072 125.025 126.263 126.431C126.634 126.869 126.853 127.301 126.84 127.858C126.831 128.247 126.87 128.639 126.887 129.029L126.922 133.184C127.007 133.2 127.091 133.215 127.177 133.23C127.341 132.921 127.491 132.609 127.671 132.305C129.249 128.333 129.528 126.19 130.358 122.744C131.072 119.777 131.674 116.309 131.788 114.074C131.994 110.032 132.031 104.514 132.246 100.474C132.278 99.9084 131.793 92.911 131.783 92.3407L131.787 90.9879Z" fill="#8F8E94"/>
<path d="M126.193 132.594C126.198 131.792 126.222 130.444 126.264 129.64C126.294 129.071 126.293 128.499 126.271 127.929C126.257 127.589 126.025 127.437 125.683 127.592C125.3 127.768 124.89 127.94 124.588 128.204C123.794 128.897 123.369 129.818 123.128 130.774C122.478 133.354 122.171 135.989 121.964 138.637C121.913 140.056 121.825 141.475 121.826 142.897C121.826 144.402 122.02 145.896 122.517 147.353C122.901 148.477 123.504 149.479 124.625 150.154C125.107 150.444 125.562 150.437 125.966 150.086C126.205 149.879 126.823 149.032 126.959 148.774C127.648 147.467 127.946 146.375 128.044 145.399C128.252 143.286 128.039 141.297 127.451 139.22C126.687 136.525 126.179 135.623 126.193 132.594Z" fill="#8F8E94"/>
<path d="M124.472 164.51C123.61 164.163 121.872 164.805 121.568 165.725C121.392 166.257 121.184 166.776 120.97 167.294L120.961 167.29C120.364 168.708 120.308 168.759 119.604 169.821C118.983 169.769 116.265 169.479 115.31 169.731C114.259 170.006 113.193 170.923 112.79 172.056C112.485 172.914 112.56 173.896 113.308 174.82C114.652 176.482 116.954 175.958 118.325 177.5C118.734 177.959 119.05 178.55 119.45 179.022C120.089 179.778 123.321 180.453 124.909 179.623C125.92 177.291 125.772 175.773 125.52 173.454C125.66 172.33 125.796 171.205 125.916 170.078C126.037 168.914 126.166 167.743 125.901 166.573C125.699 165.686 125.375 164.873 124.472 164.51Z" fill="#8F8E94"/>
<path d="M123.272 149.893C122.652 149.285 122.289 148.528 122.044 147.701C121.983 147.493 121.931 147.364 121.647 147.393C121.209 147.436 120.752 147.432 120.317 147.358C119.824 147.273 119.346 147.09 118.766 146.92C118.99 147.974 119.196 148.935 119.401 149.897C119.611 150.88 119.827 151.86 120.028 152.846C120.225 153.816 120.415 154.787 120.585 155.76C120.757 156.729 120.899 157.702 121.053 158.673C120.941 158.632 120.92 158.573 120.907 158.515C120.194 154.73 119.347 150.979 118.314 147.269C118.058 146.357 117.243 145.555 116.591 144.755C116.582 146.226 117.101 147.638 117.487 148.924C118.575 152.557 119.371 156.258 120.17 159.961C120.524 161.598 120.665 163.217 120.374 164.874C120.216 165.767 120.146 166.679 120.049 167.583C120.031 167.744 120.07 167.915 120.083 168.081C120.126 168.082 120.17 168.084 120.214 168.084C120.246 167.912 120.282 167.737 120.31 167.564C120.483 166.547 120.791 165.589 121.463 164.794C122.387 163.703 123.921 163.38 125.006 164.056C125.182 164.166 125.341 164.302 125.606 164.499C125.549 164.201 125.532 164.009 125.48 163.824C125.334 163.32 125.161 162.822 125.023 162.316C124.723 161.197 124.68 159.394 124.913 158.221C125.365 155.955 125.559 154.372 126.027 152.111C126.169 151.43 126.311 150.75 126.471 149.977C125.199 151.096 124.463 151.059 123.272 149.893Z" fill="#8F8E94"/>
<path d="M140.839 72.6283C142.003 72.9327 143.177 73.2232 144.31 73.629C144.616 73.7413 144.904 73.9042 145.186 74.081L146.014 74.6528L147.473 76.2331C147.558 76.4129 147.647 76.5928 147.73 76.7757C147.985 77.3291 148.342 77.8318 148.69 78.3252C148.785 78.4605 149.017 78.4805 149.186 78.5527C149.227 78.3683 149.329 78.1715 149.299 78.004C149.037 76.579 148.785 75.1509 148.464 73.7428C148.169 72.4592 147.803 71.1772 147.06 70.1104C146.051 68.6623 144.702 67.8399 143.096 67.7308C142.897 67.7692 142.759 67.7584 142.665 67.823C142.576 67.8845 142.469 67.9491 142.374 68.0182H142.373L142.37 68.0213C142.293 68.0766 142.231 68.1366 142.183 68.2027L141.373 68.9897L141.383 69.0297C141.271 69.1097 141.178 69.2618 141.1 69.4878C140.822 70.2872 140.559 71.0942 140.351 71.9151C140.222 72.4254 140.352 72.5007 140.839 72.6283Z" fill="#8F8E94"/>
<path d="M142.23 126.921C142.637 127.227 142.991 127.606 143.373 127.951C143.5 128.066 143.638 128.171 143.833 128.332C143.943 127.929 144.005 127.599 144.123 127.29C144.374 126.633 144.625 125.977 144.929 125.347C145.084 125.032 145.172 124.758 145.013 124.435C144.62 123.636 144.228 122.837 143.789 121.942C143.696 122.134 143.652 122.197 143.636 122.265C143.322 123.617 142.737 124.849 142.023 126.025C141.758 126.461 141.833 126.624 142.23 126.921Z" fill="#8F8E94"/>
<path d="M146.395 64.9859C145.814 65.733 145.246 66.4939 144.682 67.2425C145.251 67.676 145.818 68.0695 146.337 68.5199C146.653 68.7935 146.884 69.1671 147.182 69.4668C147.29 69.576 147.515 69.6897 147.624 69.6406C147.736 69.5914 147.854 69.3346 147.828 69.1978C147.56 67.7944 147.277 66.3955 146.968 65.0028C146.897 64.6846 146.635 64.6784 146.395 64.9859Z" fill="#8F8E94"/>
<path d="M145.984 140.236C146.109 141.663 146.075 143.103 146.181 144.533C146.267 145.739 147.042 146.24 148.17 145.914C149.658 145.486 150.772 144.586 150.907 142.889C150.963 142.184 150.986 140.354 150.898 139.464C150.754 138.036 150.252 136.574 149.845 135.033C149.123 132.306 148.562 131.317 147.59 129.122C147.189 128.213 146.484 127.25 146.049 126.358C145.965 126.184 145.77 125.969 145.618 125.965C145.472 125.961 145.265 126.175 145.174 126.344C144.879 126.888 144.715 127.463 144.713 128.11C144.713 129.818 145.015 131.482 145.229 133.16C145.529 135.512 145.777 137.873 145.984 140.236Z" fill="#8F8E94"/>
<path d="M141.301 150.086C141.705 150.438 142.159 150.444 142.642 150.153C143.764 149.479 144.366 148.476 144.751 147.353C145.247 145.895 145.441 144.401 145.441 142.896C145.442 141.474 145.353 140.057 145.304 138.637C145.098 135.988 144.789 133.353 144.139 130.774C143.898 129.818 143.473 128.897 142.679 128.204C142.377 127.939 141.969 127.767 141.584 127.592C141.243 127.437 141.01 127.589 140.996 127.928C140.976 128.499 140.975 129.071 141.003 129.639C141.046 130.443 141.07 131.791 141.074 132.594C141.088 135.622 140.581 136.524 139.816 139.219C139.228 141.296 139.015 143.285 139.224 145.399C139.321 146.375 139.618 147.466 140.308 148.773C140.444 149.031 141.063 149.878 141.301 150.086Z" fill="#8F8E94"/>
<path d="M138.403 91.1696C140.337 92.4071 142.465 93.3002 144.711 93.9627C145.583 94.2194 146.01 93.8982 145.881 93.0512C145.759 91.8398 145.585 90.6301 145.529 89.4157C145.453 87.7478 145.731 86.1045 146.233 84.4951C146.569 83.4221 147.265 82.5951 148.343 82.0401C149.003 81.6989 149.122 81.4345 148.89 80.8104C148.076 78.6352 146.976 76.6092 145.164 74.9828C143.95 73.8929 142.525 73.1381 140.808 72.9014C139.993 72.7892 139.628 73.0106 139.438 73.75C138.481 77.4777 136.72 80.8949 134.433 84.0846C133.745 85.0438 133.725 85.8478 134.206 86.8285C135.118 88.687 136.629 90.0352 138.403 91.1696Z" fill="#8F8E94"/>
<path d="M142.355 158.221C142.587 159.394 142.546 161.197 142.244 162.316C142.107 162.822 141.934 163.32 141.79 163.826C141.737 164.009 141.718 164.201 141.663 164.499C141.926 164.302 142.087 164.166 142.263 164.056C143.346 163.38 144.88 163.703 145.806 164.794C146.477 165.589 146.784 166.547 146.957 167.564C146.987 167.737 147.022 167.912 147.054 168.084C147.098 168.084 147.142 168.082 147.184 168.081C147.198 167.915 147.237 167.744 147.22 167.583C147.122 166.679 147.052 165.767 146.893 164.874C146.603 163.217 146.745 161.598 147.098 159.961C147.896 156.258 148.694 152.557 149.78 148.924C150.166 147.638 150.685 146.226 150.676 144.755C150.024 145.555 149.209 146.357 148.955 147.269C147.92 150.979 147.073 154.73 146.36 158.515C146.349 158.573 146.328 158.632 146.216 158.673C146.37 157.702 146.512 156.729 146.682 155.76C146.854 154.787 147.045 153.816 147.241 152.846C147.441 151.86 147.656 150.88 147.868 149.897C148.072 148.935 148.277 147.974 148.501 146.92C147.921 147.09 147.444 147.273 146.95 147.358C146.516 147.432 146.06 147.436 145.622 147.393C145.338 147.365 145.284 147.493 145.223 147.701C144.981 148.528 144.616 149.287 143.995 149.893C142.804 151.059 142.07 151.096 140.798 149.977C140.958 150.75 141.098 151.43 141.24 152.111C141.708 154.372 141.904 155.955 142.355 158.221Z" fill="#8F8E94"/>
<path d="M140.089 133.23C140.175 133.214 140.259 133.198 140.344 133.184L140.38 129.029C140.397 128.639 140.435 128.247 140.426 127.858C140.414 127.301 140.632 126.868 141.005 126.43C142.194 125.023 143.054 123.449 143.376 121.646C143.465 121.153 143.408 120.676 143.272 120.215L142.594 112.902L142.591 112.892C142.596 112.724 142.601 112.558 142.603 112.389C142.62 110.57 142.468 108.749 142.352 106.933C142.217 104.852 142.058 102.774 141.873 100.698C141.715 98.9461 141.562 97.1921 141.305 95.4551C141.081 93.9363 140.364 92.7142 138.806 92.0671C137.864 91.6751 136.918 91.2616 136.208 90.4899C135.943 90.204 135.516 90.3838 135.479 90.7773C135.472 90.8465 135.474 90.9172 135.479 90.9879L135.484 92.3391C135.474 92.911 134.99 99.9068 135.02 100.473C135.235 104.512 135.272 110.031 135.479 114.072C135.593 116.307 136.194 119.775 136.909 122.744C137.738 126.19 138.019 128.331 139.595 132.304C139.776 132.609 139.926 132.921 140.089 133.23Z" fill="#8F8E94"/>
<path d="M151.958 169.729C151.002 169.479 148.284 169.768 147.663 169.822C146.961 168.758 146.904 168.709 146.306 167.288L146.298 167.293C146.083 166.775 145.875 166.255 145.701 165.725C145.396 164.806 143.657 164.163 142.795 164.509C141.892 164.873 141.569 165.685 141.366 166.572C141.101 167.742 141.23 168.915 141.353 170.078C141.471 171.205 141.609 172.329 141.748 173.454C141.495 175.774 141.349 177.291 142.359 179.623C143.948 180.453 147.178 179.777 147.818 179.022C148.217 178.548 148.534 177.96 148.943 177.5C150.313 175.958 152.616 176.482 153.96 174.821C154.707 173.897 154.782 172.913 154.477 172.057C154.075 170.922 153.01 170.006 151.958 169.729Z" fill="#8F8E94"/>
<path d="M144.664 94.7741C144.299 94.628 143.93 94.4928 143.558 94.3759C142.973 94.193 142.748 94.339 142.698 94.9462C142.606 96.0853 142.522 97.2305 142.561 98.3681C142.625 100.357 142.775 102.343 142.907 104.329C142.959 105.115 143.092 105.893 143.128 106.678C143.246 109.253 143.339 111.828 143.438 114.404C143.563 117.682 144.279 120.804 145.706 123.767C146.439 125.292 147.002 126.896 147.644 128.46C147.678 128.544 147.722 128.62 147.762 128.699C147.81 128.705 147.858 128.713 147.906 128.719C148.025 128.341 148.205 127.97 148.251 127.584C148.359 126.68 148.481 125.766 148.459 124.862C148.414 123.042 148.217 121.225 148.193 119.403C148.191 119.317 148.193 119.23 148.191 119.143L148.933 114.689C149.005 114.326 149.086 113.963 149.134 113.599C149.618 110.009 150.195 106.429 150.541 102.829C150.824 99.8791 150.877 96.9077 150.939 93.944C150.979 92.0163 150.904 90.084 150.786 88.1595C150.692 86.6084 150.494 85.0604 150.273 83.5217C150.148 82.6516 149.636 82.4195 148.768 82.7085C148.042 82.9498 147.539 83.4602 147.149 84.0812C146.313 85.414 146.118 86.8959 146.073 88.4085C146.011 90.453 146.393 92.436 146.86 94.4021C146.84 95.4397 145.304 95.0016 144.664 94.7741Z" fill="#8F8E94"/>
<path d="M177.108 90.2129C175.953 89.6595 174.805 89.0969 174.046 87.964C173.794 87.5904 173.512 87.2369 173.24 86.8771C172.46 85.8457 171.578 84.9357 170.39 84.4022C170.218 84.3238 170.029 84.2869 169.848 84.2285L168.067 84.0548C168.067 84.0548 168.073 84.0671 168.081 84.0886C167.798 84.0656 167.506 84.104 167.218 84.2224C166.419 84.5498 165.648 84.9633 164.88 85.3722C164.749 85.4414 164.616 85.6735 164.616 85.8288C164.613 86.9494 164.644 88.0685 164.666 89.1891C164.519 90.1622 164.972 91.0999 165.296 92.0022C165.624 92.9184 165.95 93.727 166.479 94.4033C166.512 94.5125 166.536 94.5939 166.571 94.6662C166.958 95.4548 167.331 96.2511 167.745 97.0212C168.059 97.6053 168.397 98.1787 168.783 98.7075C168.892 98.8582 169.237 98.9442 169.414 98.8781C169.7 98.7705 169.579 98.4646 169.482 98.2448C169.162 97.5054 168.793 96.7906 168.512 96.0374C168.466 95.9113 168.41 95.7991 168.349 95.6915C168.481 95.6054 168.626 95.4579 168.779 95.2242C168.945 95.6116 169.121 95.9943 169.284 96.3817C169.715 97.4009 170.141 98.4231 170.564 99.4454C170.797 100.008 171.104 100.463 171.741 100.498C172.095 100.52 172.281 100.329 172.274 99.8835C172.246 99.8035 172.207 99.6575 172.149 99.5192C171.646 98.3155 171.157 97.1027 170.628 95.9129C170.402 95.4087 170.15 94.9183 169.888 94.4325C169.973 94.3234 170.072 94.2143 170.18 94.1005C170.402 94.5601 170.625 95.0182 170.836 95.4809C171.467 96.8567 172.073 98.2464 172.731 99.6052C172.884 99.9219 173.173 100.202 173.462 100.389C173.618 100.491 173.985 100.448 174.114 100.312C174.279 100.14 174.327 99.8143 174.37 99.5438C174.391 99.4116 174.296 99.2517 174.232 99.1164C173.269 97.0612 172.309 95.0059 171.337 92.9584C171.419 92.8661 171.494 92.7723 171.558 92.6786C172.438 94.3587 173.322 96.0358 174.221 97.7037C174.317 97.8836 174.65 98.0972 174.772 98.0404C174.958 97.9558 175.057 97.6499 175.189 97.4424C175.011 96.9136 174.897 96.4494 174.703 96.0282C174.173 94.8906 173.61 93.7685 173.059 92.6417C172.769 92.0499 172.48 91.458 172.183 90.8693C172.175 90.8232 172.159 90.774 172.141 90.7232C172.314 90.3482 172.685 90.2298 172.685 90.2298C172.854 90.5265 173.16 90.8262 173.468 90.9354C174.221 91.2013 175.006 91.372 175.785 91.5503C176.4 91.6902 176.915 91.4857 177.288 90.9492C177.558 90.5603 177.524 90.4127 177.108 90.2129Z" fill="#8F8E94"/>
<path d="M158.251 51.3913C157.788 51.3513 157.304 51.2114 156.903 51.01C156.193 50.6549 155.538 50.2199 154.769 49.7649C154.783 49.9509 154.795 50.057 154.795 50.1615C154.795 50.9747 154.861 51.7909 154.766 52.5964C154.653 53.5618 154.246 54.4349 153.174 54.9714C153.156 54.9806 153.141 55.0006 153.127 55.0206C153.062 55.0268 152.94 55.0252 152.713 55.0037C152.272 54.9591 151.685 54.4165 151.36 54.0783C151.281 53.9922 151.203 53.9077 151.125 53.8216C151.121 53.8154 151.117 53.8108 151.117 53.8108L151.118 53.8139C150.898 53.5787 150.677 53.3451 150.467 53.1037C150.422 53.1283 150.376 53.1529 150.331 53.1744C150.357 53.259 150.368 53.3451 150.409 53.4234C151.271 55.1128 152.088 56.8176 153.026 58.4793C153.357 59.0635 153.957 59.5646 154.5 60.0596C154.66 60.2056 155.044 60.2025 155.326 60.2671L156.669 60.3778C156.819 60.4039 156.991 60.3716 157.191 60.2948C157.767 60.0703 158.359 59.8505 158.969 59.726C159.377 59.643 159.563 59.4893 159.596 59.1665C159.695 58.2119 159.868 57.2542 159.854 56.3042C159.83 54.8177 159.597 53.3466 159.031 51.9354C158.899 51.6095 158.707 51.4297 158.251 51.3913Z" fill="#8F8E94"/>
<path d="M160.108 61.4715C161.489 63.0548 162.731 64.7426 163.762 66.5858C163.82 66.6903 163.919 66.7671 164 66.8594C164.043 66.8317 164.087 66.8056 164.131 66.7794C164.077 63.2792 162.412 60.3923 160.674 57.5316C160.616 57.5316 160.557 57.5331 160.498 57.5347C160.428 57.6945 160.324 57.8467 160.292 58.0143C160.131 58.8551 159.993 59.7006 159.836 60.543C159.768 60.9058 159.868 61.1948 160.108 61.4715Z" fill="#8F8E94"/>
<path d="M153.84 53.4019C153.865 53.3204 153.889 53.2405 153.897 53.1575C153.974 52.3612 154.046 51.565 154.097 51.01C153.984 50.2445 153.892 49.7326 153.833 49.2192C153.51 46.363 151.904 44.1264 150.293 41.9005C150.158 41.7145 149.791 41.6069 149.547 41.63C149.411 41.6438 149.29 41.9927 149.195 42.2064C149.143 42.3232 149.14 42.4693 149.14 42.6015C149.146 44.3401 149.113 46.0817 149.181 47.8188C149.273 50.2076 150.337 52.1967 151.939 53.9015C152.79 54.8054 153.479 54.5963 153.84 53.4019Z" fill="#8F8E94"/>
<path d="M153.428 42.9498C152.956 42.8422 152.487 42.7238 151.864 42.5732C151.979 42.9283 152.024 43.1466 152.117 43.3464C152.643 44.4778 153.248 45.583 153.699 46.7375C154.353 48.4115 155.688 49.5706 157.129 50.6589C157.948 51.2784 158.691 51.0325 158.941 50.0963C158.998 49.8826 159.049 49.649 159.016 49.4353C158.881 48.5222 158.796 47.5937 158.538 46.7083C158.218 45.6199 157.751 44.5654 157.326 43.5032C157.21 43.2127 157.027 42.9606 156.576 43.0728C155.514 43.3341 154.466 43.185 153.428 42.9498Z" fill="#8F8E94"/>
<path d="M168.8 83.5881C169.217 83.6773 169.299 83.4744 169.147 83.027C168.319 80.5813 167.471 78.1433 166.68 75.6838C166.303 74.5109 166.044 73.2965 165.716 72.1036C165.678 71.9622 165.552 71.8423 165.465 71.7132C165.355 71.8377 165.221 71.9514 165.142 72.0944C165.081 72.2097 165.074 72.3619 165.067 72.4987C165.02 73.3103 164.941 74.1251 164.948 74.9367C164.96 76.4862 165.021 78.0357 165.062 79.5852C165.011 79.5852 164.96 79.5883 164.908 79.5898C164.484 77.0903 164.395 74.5616 164.487 72.036C164.578 69.5319 164.125 67.2414 162.59 65.2584C162.489 65.1278 162.388 64.9956 162.285 64.8649C162.232 64.8003 162.18 64.7373 162.126 64.6743L160.969 63.2862C160.457 62.8942 160.005 62.5391 159.543 62.1948L158.663 61.3001C158.637 61.2601 158.604 61.2248 158.563 61.1987L158.554 61.191L158.553 61.1925C158.438 61.1249 158.268 61.1141 158.042 61.1725C157.655 61.274 157.292 61.5153 156.945 61.7367C156.559 61.9826 156.483 62.3792 156.666 62.7866C156.866 63.2293 157.085 63.6674 157.353 64.0686C157.848 64.8111 158.357 65.5336 158.617 66.4236C159.526 69.5226 160.468 72.6094 161.394 75.7022C161.665 76.6046 161.92 77.5115 162.184 78.4169C162.161 78.4246 162.139 78.4323 162.115 78.44C162.091 78.3893 162.058 78.3401 162.041 78.2847C161.085 75.155 160.141 72.0191 159.17 68.8924C158.712 67.4197 158.309 65.9179 157.38 64.6558C156.816 63.8888 156.263 63.1094 155.694 62.3469C155.296 61.812 154.883 61.2893 154.462 60.7759C154.387 60.6837 154.223 60.5915 154.129 60.6191C154.051 60.6391 153.966 60.8328 153.969 60.9481C153.987 61.5553 153.925 62.1978 154.092 62.762C154.335 63.5736 154.746 64.333 155.095 65.1093C155.34 65.6504 155.673 66.1592 155.845 66.7218C156.761 69.7286 157.898 72.6447 159.221 75.4778C160.634 78.5 162.119 81.4898 163.559 84.4997C163.742 84.8824 163.958 84.864 164.273 84.7087C165.701 83.997 167.113 83.2253 168.8 83.5881Z" fill="#8F8E94"/>
<path d="M144.096 34.5837C144.075 34.9265 144.188 35.1402 144.46 35.3416C145.125 35.8319 145.81 36.3116 146.393 36.9049C147.527 38.0594 148.548 39.3491 149.706 40.4728C151.173 41.8947 152.932 42.6034 155.148 42.5649C155.375 42.5373 155.825 42.4788 156.276 42.4266C156.555 42.3912 156.673 42.2267 156.641 41.9254C156.546 41.0262 156.494 40.1208 156.349 39.2292C156.036 37.3292 155.459 35.5353 154.21 34.0964C152.61 32.2502 150.625 31.0589 148.435 30.2596C148.128 30.1473 147.747 30.135 147.432 30.215C145.814 30.6239 144.205 32.7637 144.096 34.5837Z" fill="#8F8E94"/>
<path d="M102.213 85.3709C101.444 84.962 100.673 84.55 99.8744 84.2211C99.5866 84.1042 99.2945 84.0643 99.0109 84.0873L99.0265 84.055L97.2442 84.2287C97.0627 84.2856 96.8741 84.3225 96.7026 84.4009C95.5158 84.9359 94.6324 85.8459 93.8526 86.8758C93.5804 87.2371 93.2982 87.5891 93.0458 87.9642C92.2872 89.0971 91.1402 89.6582 89.9832 90.2116C89.5691 90.4114 89.5323 90.559 89.8059 90.9494C90.1774 91.4859 90.6921 91.6888 91.3075 91.5505C92.0859 91.3706 92.8714 91.2 93.6243 90.9341C93.932 90.8265 94.2397 90.5267 94.407 90.2285C94.407 90.2285 94.7785 90.3468 94.9515 90.7219C94.933 90.7742 94.9174 90.8234 94.9089 90.868C94.6126 91.4567 94.3233 92.0501 94.0327 92.6404C93.4825 93.7687 92.9196 94.8893 92.3907 96.0284C92.1951 96.448 92.0816 96.9138 91.903 97.4426C92.0349 97.6486 92.1355 97.956 92.3198 98.039C92.4432 98.0959 92.775 97.8838 92.8714 97.7024C93.7704 96.0345 94.6537 94.359 95.5342 92.6788C95.598 92.771 95.6732 92.8648 95.7554 92.9586C94.7827 95.0061 93.8228 97.0598 92.8601 99.1151C92.7963 99.2504 92.7013 99.4118 92.7225 99.544C92.7651 99.8145 92.8133 100.139 92.9778 100.313C93.1068 100.448 93.474 100.489 93.63 100.389C93.9192 100.2 94.2085 99.9221 94.3616 99.6055C95.0195 98.245 95.625 96.8569 96.2559 95.4796C96.4686 95.0169 96.6898 94.5603 96.9124 94.1007C97.0202 94.2129 97.1194 94.3221 97.2045 94.4328C96.9422 94.917 96.6884 95.4073 96.4644 95.9115C95.9355 97.1029 95.4463 98.3142 94.943 99.5178C94.8848 99.6562 94.8465 99.8038 94.8196 99.8822C94.8111 100.328 94.9968 100.519 95.3527 100.499C95.988 100.462 96.2956 100.007 96.5282 99.4441C96.9507 98.4218 97.3775 97.3996 97.8085 96.3804C97.973 95.993 98.1474 95.6103 98.3133 95.2229C98.4664 95.4581 98.6111 95.6041 98.7429 95.6917C98.682 95.7978 98.6267 95.91 98.5785 96.0361C98.2991 96.7908 97.9291 97.5056 97.61 98.2435C97.5136 98.4649 97.3917 98.7708 97.6781 98.8768C97.8553 98.9429 98.1999 98.8568 98.3091 98.7077C98.6947 98.1774 99.035 97.604 99.347 97.0199C99.761 96.2497 100.134 95.455 100.521 94.6664C100.556 94.5926 100.581 94.5111 100.613 94.402C101.142 93.7272 101.468 92.9171 101.797 92.0009C102.12 91.1001 102.573 90.1608 102.427 89.1878C102.448 88.0687 102.478 86.9481 102.476 85.829C102.476 85.6722 102.343 85.4401 102.213 85.3709Z" fill="#8F8E94"/>
<path d="M103.33 66.5858C104.362 64.7426 105.604 63.0548 106.984 61.4715C107.224 61.1948 107.324 60.9058 107.258 60.5414C107.099 59.7006 106.963 58.8551 106.8 58.0143C106.768 57.8452 106.665 57.6945 106.594 57.5347C106.536 57.5331 106.476 57.5316 106.418 57.53C104.68 60.3923 103.015 63.2792 102.961 66.7794C103.005 66.8056 103.049 66.8317 103.092 66.8594C103.173 66.7671 103.272 66.6887 103.33 66.5858Z" fill="#8F8E94"/>
<path d="M113.124 60.949C113.127 60.8337 113.042 60.64 112.964 60.6185C112.87 60.5923 112.706 60.683 112.63 60.7768C112.209 61.2902 111.797 61.8129 111.4 62.3463C110.83 63.1087 110.277 63.8881 109.712 64.6552C108.784 65.9172 108.381 67.4206 107.924 68.8933C106.952 72.0184 106.007 75.1543 105.053 78.2841C105.036 78.3394 105.002 78.3901 104.978 78.4409L104.908 78.4163C105.172 77.5109 105.427 76.6054 105.698 75.7031C106.624 72.6102 107.567 69.522 108.476 66.4245C108.735 65.5329 109.244 64.812 109.741 64.068C110.007 63.6683 110.227 63.2286 110.427 62.7859C110.61 62.3801 110.533 61.9835 110.148 61.7376C109.8 61.5147 109.437 61.2749 109.05 61.1734C108.825 61.1134 108.656 61.1242 108.54 61.1918V61.1903L108.53 61.198C108.489 61.2257 108.457 61.2595 108.431 61.301L107.55 62.1956C107.088 62.5384 106.635 62.8951 106.124 63.2871L104.968 64.6752C104.806 64.8627 104.655 65.0625 104.504 65.2593C102.967 67.2423 102.515 69.5327 102.606 72.0369C102.698 74.561 102.609 77.0912 102.185 79.5907C102.134 79.5892 102.081 79.5861 102.03 79.5846C102.071 78.0351 102.132 76.4855 102.145 74.9376C102.152 74.1244 102.073 73.3112 102.026 72.4996C102.019 72.3627 102.012 72.209 101.951 72.0953C101.871 71.9508 101.738 71.8386 101.627 71.714C101.541 71.8432 101.415 71.9615 101.377 72.1045C101.049 73.2958 100.789 74.5102 100.412 75.6847C99.6226 78.1442 98.7732 80.5807 97.9452 83.0264C97.7935 83.4737 97.8757 83.6766 98.2926 83.589C99.9799 83.2247 101.392 83.9964 102.82 84.7081C103.135 84.8649 103.35 84.8818 103.533 84.499C104.974 81.4892 106.458 78.5008 107.872 75.4771C109.195 72.6441 110.332 69.7295 111.248 66.7227C111.419 66.1601 111.753 65.6513 111.998 65.1087C112.348 64.3324 112.758 63.5745 113 62.7629C113.169 62.1972 113.105 61.5562 113.124 60.949Z" fill="#8F8E94"/>
<path d="M110.817 42.4252C111.266 42.4774 111.717 42.5358 111.944 42.565C114.159 42.6019 115.921 41.8933 117.386 40.4714C118.545 39.3477 119.565 38.0579 120.7 36.9035C121.283 36.3101 121.967 35.8305 122.632 35.3417C122.903 35.1403 123.017 34.9251 122.997 34.5823C122.888 32.7638 121.278 30.6224 119.66 30.2151C119.346 30.1352 118.964 30.1475 118.658 30.2597C116.466 31.0575 114.482 32.2504 112.883 34.095C111.634 35.5354 111.057 37.3293 110.743 39.2293C110.599 40.1193 110.546 41.0263 110.451 41.9256C110.42 42.2253 110.538 42.3913 110.817 42.4252Z" fill="#8F8E94"/>
<path d="M117.951 42.6007C117.951 42.4685 117.948 42.3225 117.896 42.2056C117.801 41.992 117.682 41.643 117.544 41.6292C117.3 41.6077 116.932 41.7153 116.798 41.8997C115.188 44.1256 113.581 46.3623 113.258 49.2199C113.2 49.7334 113.108 50.2453 112.994 51.0108C113.045 51.5642 113.117 52.362 113.195 53.1567C113.201 53.2397 113.227 53.3212 113.251 53.4011C113.611 54.5971 114.301 54.8046 115.151 53.9023C116.753 52.196 117.816 50.2068 117.911 47.8195C117.979 46.0825 117.944 44.3408 117.951 42.6007Z" fill="#8F8E94"/>
<path d="M108.123 59.726C108.733 59.8505 109.325 60.0703 109.901 60.2948C110.101 60.3716 110.273 60.4039 110.423 60.3778L111.766 60.2686C112.049 60.2041 112.432 60.2056 112.592 60.0596C113.135 59.5661 113.735 59.0635 114.064 58.4793C115.004 56.8176 115.821 55.1128 116.683 53.4234C116.723 53.3466 116.735 53.259 116.761 53.1744C116.716 53.1529 116.67 53.1283 116.626 53.1037C116.415 53.3451 116.192 53.5787 115.974 53.8139L115.975 53.8108C115.975 53.8108 115.971 53.8154 115.967 53.8216C115.889 53.9077 115.811 53.9938 115.732 54.0783C115.407 54.4165 114.821 54.9591 114.379 55.0037C114.152 55.0252 114.03 55.0268 113.965 55.0206C113.949 55.0006 113.936 54.9806 113.918 54.9714C112.846 54.4365 112.439 53.5618 112.326 52.5964C112.229 51.7909 112.297 50.9747 112.296 50.1615C112.296 50.057 112.31 49.9524 112.323 49.7664C111.554 50.2199 110.899 50.6565 110.189 51.01C109.788 51.2114 109.304 51.3513 108.841 51.3913C108.385 51.4312 108.193 51.6095 108.061 51.937C107.495 53.3481 107.262 54.8177 107.24 56.3042C107.224 57.2557 107.397 58.2134 107.496 59.1665C107.529 59.4893 107.716 59.643 108.123 59.726Z" fill="#8F8E94"/>
<path d="M109.963 50.6588C111.405 49.5705 112.739 48.4114 113.393 46.7374C113.844 45.583 114.449 44.4777 114.975 43.3463C115.069 43.1465 115.114 42.9297 115.229 42.5731C114.605 42.7238 114.137 42.8421 113.664 42.9497C112.626 43.1865 111.58 43.334 110.518 43.0727C110.065 42.9605 109.882 43.2126 109.766 43.5047C109.343 44.5653 108.874 45.6214 108.555 46.7097C108.296 47.5952 108.212 48.5221 108.076 49.4352C108.045 49.6504 108.096 49.8825 108.152 50.0978C108.401 51.0324 109.144 51.2783 109.963 50.6588Z" fill="#8F8E94"/>
<path d="M48.6248 46.4196C50.2651 46.6855 51.8644 46.5487 53.3924 45.9384C55.4223 45.1283 57.1474 43.8139 58.7285 42.3043C59.0211 42.026 59.1105 41.6725 58.9923 41.3035C58.8149 40.7439 58.6497 40.1629 58.3692 39.654C57.1792 37.5095 56.015 35.3558 55.1524 33.0483C54.7219 31.9015 53.0771 30.5072 51.8098 30.8992C50.1089 31.4281 48.4323 32.0368 46.7633 32.6656C45.1382 33.2789 44.2786 34.5533 44.1528 36.2674C44.0361 37.8692 43.9648 39.4849 44.0315 41.0883C44.1316 43.5003 46.1175 46.0137 48.6248 46.4196Z" fill="#8F8E94"/>
<path d="M47.059 83.8972C48.4901 81.6896 49.2814 79.2315 49.8665 76.692C50.3638 74.5306 50.7003 72.3461 50.8155 70.1232C50.8701 69.0886 50.4381 68.6044 49.4209 68.7319C47.8776 68.9272 46.4208 69.4345 44.9671 69.9633C44.4713 70.1432 44.203 70.4721 44.1287 70.981C43.9984 71.8818 43.8119 72.7811 43.768 73.6866C43.6452 76.1724 43.5557 81.1501 43.5845 81.1516C43.5845 82.655 43.583 84.1585 43.5845 85.662C43.586 86.2246 43.6482 86.263 44.1909 86.0985C45.4188 85.7265 46.3526 84.9871 47.059 83.8972Z" fill="#8F8E94"/>
<path d="M42.7842 71.1443C42.7205 70.5033 42.4007 70.0836 41.7685 69.913C41.4805 69.8361 41.2091 69.6854 40.9211 69.6101C39.7493 69.3073 38.579 68.9798 37.3935 68.7431C36.5295 68.5694 35.9852 69.0951 36.0338 69.9176C36.2081 72.823 36.6583 75.6824 37.4648 78.4771C38.0954 80.6585 38.9049 82.7569 40.3132 84.5709C41.0545 85.5255 42.0747 85.9145 43.2375 86.248C43.2572 85.8699 43.286 85.5978 43.2845 85.3288C43.2693 82.1389 43.292 78.9491 43.2102 75.7623C43.1708 74.2204 42.9358 72.6831 42.7842 71.1443Z" fill="#8F8E94"/>
<path d="M47.5517 83.9505C47.4805 84.0797 47.4835 84.2519 47.4517 84.4025C47.6078 84.4025 47.7852 84.4517 47.9155 84.3933C48.3794 84.1858 48.866 83.9982 49.2738 83.7015C52.339 81.4817 54.7039 78.6408 56.4063 75.2388C56.9838 74.0859 57.4993 72.8899 57.5781 71.5816C57.7115 69.3311 57.3264 67.1358 56.7367 64.976C56.6882 64.7976 56.5836 64.6362 56.4502 64.3426C56.2759 64.667 56.1774 64.8514 56.0788 65.0344C55.2724 66.5424 54.2355 67.8722 52.7438 68.6992C51.8842 69.1773 51.5492 69.7646 51.5553 70.7177C51.5659 72.7054 51.1627 74.6362 50.6245 76.5378C49.8893 79.1327 48.8357 81.5893 47.5517 83.9505Z" fill="#8F8E94"/>
<path d="M36.4797 82.8476C37.2513 83.4948 38.0305 84.1466 39.028 84.4203C39.1523 84.4556 39.3024 84.3987 39.4418 84.3834C39.4161 84.2573 39.4176 84.1159 39.3615 84.0037C38.9507 83.1781 38.4974 82.3726 38.1169 81.5348C36.5009 77.9775 35.3246 74.3004 35.2973 70.3327C35.2927 69.6701 35.0396 69.2028 34.4574 68.9015C32.8642 68.0806 31.7803 66.7431 30.8783 65.2274C30.7358 64.986 30.6161 64.7308 30.4857 64.4818C30.4342 64.4803 30.3811 64.4803 30.328 64.4803C30.2477 64.6986 30.1355 64.9122 30.09 65.1398C29.8475 66.3434 29.5686 67.541 29.4003 68.7554C29.1623 70.4679 29.1775 72.1712 29.8445 73.8177C31.2967 77.4057 33.5464 80.3849 36.4797 82.8476Z" fill="#8F8E94"/>
<path d="M43.7669 68.2888C43.7745 69.1435 44.2611 69.4833 45.0585 69.2588C46.3698 68.8914 47.6826 68.5286 49.009 68.2227C49.5654 68.0951 49.9807 67.843 50.2627 67.3634C51.0904 65.9598 51.5588 64.4395 51.6846 62.8069C51.7134 62.4456 51.5709 62.2181 51.2784 62.0182C49.5381 60.8269 47.6037 60.3488 45.5315 60.4349C44.2156 60.4887 44.0504 60.3964 43.7654 62.0966C43.7427 62.2304 43.7412 62.3687 43.7412 62.5056C43.7381 63.4464 43.7396 64.3872 43.7396 65.328H43.7654C43.7654 66.3149 43.7578 67.3019 43.7669 68.2888Z" fill="#8F8E94"/>
<path d="M37.7469 68.1919C39.1415 68.5317 40.5286 68.9037 41.9127 69.288C42.5933 69.4771 43.0542 69.1404 43.0678 68.4148C43.1027 66.6562 43.183 64.8976 43.1724 63.1405C43.1694 62.4379 42.995 61.7323 42.8586 61.0359C42.7874 60.6685 42.5024 60.4825 42.1279 60.4871C41.2062 60.4994 40.277 60.4518 39.3644 60.5548C38.0107 60.7085 36.7691 61.225 35.6306 61.9952C35.2941 62.2227 35.1152 62.4917 35.1895 62.9114C35.3684 64.5086 35.7974 66.0275 36.6463 67.4049C36.9025 67.8199 37.2572 68.072 37.7469 68.1919Z" fill="#8F8E94"/>
<path d="M43.749 58.9262C43.7566 59.5611 43.8627 59.6626 44.4963 59.6779C45.2892 59.6995 46.0835 59.7025 46.8764 59.6964C48.4363 59.6856 49.8536 60.1437 51.1619 60.9892C51.2998 61.0799 51.4772 61.1076 51.6364 61.166C51.6803 60.9938 51.7804 60.8171 51.7622 60.6541C51.6167 59.3905 51.4787 58.1253 51.265 56.8739C51.2074 56.5296 50.9557 56.1699 50.698 55.9193C49.2564 54.5158 47.4994 53.8363 45.5181 53.7148C45.2649 53.7287 45.0102 53.7318 44.7571 53.7579C44.0507 53.8301 43.8869 53.99 43.7732 54.6987C43.752 54.834 43.7384 54.9723 43.7384 55.1076C43.7384 56.3805 43.7323 57.6533 43.749 58.9262Z" fill="#8F8E94"/>
<path d="M43.0438 54.426C42.9816 54.0463 42.7633 53.8634 42.3783 53.8111C40.162 53.5098 38.2458 54.24 36.5237 55.5805C36.1918 55.8388 35.8643 56.2108 35.7309 56.5982C35.2716 57.9402 35.0715 59.3376 35.1245 60.7642C35.1306 60.9026 35.214 61.0394 35.2625 61.1777C35.3944 61.1285 35.5429 61.1055 35.6551 61.0286C36.5889 60.3953 37.5925 59.9356 38.7158 59.8096C39.4571 59.7265 40.2059 59.7096 40.9518 59.662C40.9533 59.6697 40.9533 59.6774 40.9548 59.6835C41.4945 59.6835 42.0326 59.685 42.5708 59.6835C42.8664 59.682 43.0514 59.5559 43.0847 59.2362C43.2484 57.6297 43.3075 56.0279 43.0438 54.426Z" fill="#8F8E94"/>
<path d="M43.7483 49.1673C43.7377 50.1373 43.7362 51.1089 43.7407 52.0804C43.7407 52.4478 43.9378 52.6769 44.2849 52.7583C44.5032 52.8106 44.7276 52.8368 44.9489 52.8583C46.9848 53.0597 48.9146 53.5992 50.6867 54.66C50.8125 54.7368 50.9459 54.7968 51.2097 54.9336C51.2097 54.6046 51.2461 54.394 51.2036 54.2034C50.8262 52.5201 50.4426 50.8383 50.0439 49.1596C49.8666 48.414 49.4436 47.8268 48.7493 47.5055C47.8549 47.092 46.9393 46.7261 46.0328 46.3402C45.6902 46.1926 45.4052 46.2972 45.2096 46.5939C44.7458 47.2979 44.294 48.0128 43.8529 48.7322C43.7801 48.8537 43.7498 49.0212 43.7483 49.1673Z" fill="#8F8E94"/>
<path d="M43.0314 48.7683C42.5872 48.015 42.1112 47.2802 41.6276 46.55C41.4518 46.2825 41.1804 46.2118 40.8727 46.3271C40.2133 46.5762 39.5448 46.8006 38.8959 47.0712C37.7196 47.5631 36.9161 48.3702 36.6569 49.7014C36.378 51.1296 36.0051 52.5377 35.6973 53.9597C35.6382 54.2272 35.6882 54.5193 35.6882 54.8359C35.814 54.8221 35.8626 54.8283 35.9005 54.8113C36.0081 54.7591 36.1142 54.7007 36.2158 54.6407C37.521 53.8705 38.9065 53.3263 40.4028 53.0881C41.0819 52.9804 41.7656 52.8944 42.4417 52.7668C43.0011 52.6607 43.139 52.4655 43.1405 51.8936C43.1436 51.0742 43.1481 50.2533 43.1375 49.434C43.133 49.2095 43.1375 48.9482 43.0314 48.7683Z" fill="#8F8E94"/>
<path d="M51.0927 68.6594C51.687 68.4242 52.3313 68.2459 52.8436 67.8831C54.3656 66.8085 55.3389 65.2743 56.0013 63.551C56.3136 62.7378 56.1984 61.9015 55.7012 61.1575C54.8432 59.8785 53.779 58.7932 52.6087 57.8124C52.4813 57.7048 52.3116 57.6479 52.0584 57.5126C52.1069 57.7862 52.1266 57.9446 52.166 58.0983C52.6269 59.9046 52.8588 61.737 52.7239 63.6017C52.595 65.3927 52.069 67.0253 50.735 68.2997C50.6622 68.3688 50.6107 68.4611 50.4561 68.6671C50.7547 68.6671 50.9442 68.7178 51.0927 68.6594Z" fill="#8F8E94"/>
<path d="M36.1997 68.3433C35.0006 67.2534 34.4306 65.8437 34.2229 64.2665C33.947 62.1773 34.185 60.122 34.7111 58.0928C34.752 57.9314 34.7656 57.7607 34.7914 57.5947C34.7581 57.5732 34.7232 57.5517 34.6883 57.5301C34.511 57.6516 34.3048 57.7454 34.1593 57.8991C33.1982 58.9121 32.2037 59.9006 31.3108 60.9752C30.5983 61.833 30.5271 62.8768 31.0046 63.8852C31.3806 64.6739 31.8141 65.4471 32.3159 66.1589C33.0648 67.2211 33.9895 68.1081 35.2477 68.5386C35.5873 68.6554 35.9496 68.8168 36.3665 68.5693C36.2876 68.4602 36.2528 68.391 36.1997 68.3433Z" fill="#8F8E94"/>
<path d="M39.2118 22.1186C38.8282 21.9925 38.4735 21.7742 37.9854 21.5406L37.6473 22.5383C37.5746 23.3991 37.4882 24.26 37.4518 25.124C37.4427 25.3807 37.5382 25.6666 37.661 25.8972C38.3856 27.2531 39.2633 28.506 40.326 29.6036C40.8945 30.1908 41.5736 30.6797 42.2467 31.1485C42.6393 31.4222 42.8364 31.2961 42.85 30.818C42.8697 30.2139 42.8803 29.599 42.8091 29.001C42.6135 27.4053 42.0466 25.9233 41.4735 24.4322C41.0339 23.29 40.3684 22.4983 39.2118 22.1186Z" fill="#8F8E94"/>
<path d="M44.0293 30.8227C44.0293 31.2715 44.2006 31.373 44.5584 31.1685C45.0495 30.8872 45.5816 30.6105 45.953 30.1985C46.8489 29.2039 47.6888 28.1539 48.5013 27.0871C49.1107 26.2877 49.5928 25.4191 49.4245 24.3277C49.3229 23.6805 49.2805 23.0241 49.2032 22.2785L48.8166 21.6482C48.1208 21.8942 47.4917 22.1739 46.8914 22.5091C46.5639 22.692 46.1698 22.9072 46.0076 23.2162C45.1587 24.8442 44.4689 26.549 44.1642 28.3769C44.0308 29.1778 44.0308 30.0064 44.0293 30.8227Z" fill="#8F8E94"/>
<path d="M41.4918 23.582C42.2589 25.3837 42.8895 27.2254 43.0472 29.2008C43.0593 29.3499 43.0987 29.5067 43.1654 29.6374C43.22 29.7465 43.3352 29.8234 43.4231 29.9141C43.5126 29.8203 43.6414 29.7434 43.6839 29.6312C43.7581 29.436 43.7991 29.2223 43.8203 29.0132C43.9871 27.3053 44.4858 25.6927 45.1422 24.1231C45.2665 23.8234 45.3787 23.519 45.4954 23.2192H41.3721C41.41 23.3361 41.4418 23.4637 41.4918 23.582Z" fill="#8F8E94"/>
<path d="M43.7927 47.2593C44.1444 46.7705 44.487 46.2724 44.822 45.7712C44.9372 45.5975 45.016 45.3977 45.1146 45.2024C45.0752 45.0779 45.06 44.9488 44.9978 44.8535C44.6143 44.257 44.2429 43.6483 43.8184 43.0825C43.5137 42.6767 43.3136 42.6798 43.0029 43.0995C42.5845 43.6698 42.21 44.2755 41.8477 44.8858C41.7719 45.0149 41.7628 45.2701 41.8386 45.3931C42.2328 46.0356 42.6527 46.6629 43.0893 47.2762C43.3015 47.5745 43.5759 47.5591 43.7927 47.2593Z" fill="#8F8E94"/>
<path d="M17.8808 63.0349C17.8884 63.3746 17.952 63.7113 17.999 64.1387C18.0991 64.0188 18.1385 63.9819 18.1658 63.9358C18.7206 62.9842 19.1981 61.9742 19.8424 61.0887C21.228 59.184 22.2376 57.1026 22.9698 54.8704C23.3851 53.6037 23.802 52.337 24.1795 51.0595C24.9314 48.5215 25.4135 45.9281 25.6257 43.2871C25.7121 42.2248 25.0906 41.7175 24.0992 42.0772C21.3871 43.0611 18.7479 43.1103 16.7575 47.4562C15.898 49.3347 15.7267 50.3047 15.6084 52.3478C15.5493 53.4085 15.8676 55.2563 16.7575 56.3847C17.9824 57.9373 17.8323 61.018 17.8808 63.0349Z" fill="#8F8E94"/>
<path d="M19.399 43.4597C20.022 43.0462 21.0059 42.6127 21.6668 42.2745C22.4384 41.8794 24.6168 41.5274 25.4081 41.1692C26.9453 40.4743 27.0165 40.937 27.9352 39.306C29.1464 37.1569 30.7866 34.4421 31.3218 32.0547C31.4142 31.6396 31.2975 31.2783 30.9898 31.0308C30.4425 30.5881 29.8786 30.1607 29.2798 29.7979C29.06 29.6657 28.7007 29.6888 28.4385 29.7303C26.0206 30.1069 24.591 30.4236 22.7674 31.8149C21.6562 32.6634 20.0144 34.5297 19.5142 35.8517C18.594 38.2776 18.8078 41.1492 18.7183 43.7241C18.7168 43.7918 18.7501 43.8625 18.7865 44.0039C18.9366 43.8686 19.2807 43.5381 19.399 43.4597Z" fill="#8F8E94"/>
<path d="M22.8276 62.467C23.3779 61.4078 23.5628 60.2533 23.249 59.0665C23.196 58.8667 23.0611 58.6192 22.8973 58.5439C22.7821 58.4916 22.5078 58.6545 22.385 58.7929C21.8847 59.3555 21.4193 59.9489 20.9342 60.5254C19.8625 61.8013 18.8528 63.1403 18.1964 64.6745C17.4476 66.4255 16.8412 68.241 16.2333 70.0504C14.6764 74.6852 13.6411 79.4293 13.4834 84.3424C13.4743 84.6668 13.5304 84.9927 13.5562 85.3186C13.6123 85.3309 13.6684 85.3432 13.726 85.3555C13.8245 85.128 13.9245 84.9004 14.0185 84.6683C15.2419 81.6506 16.9231 78.9712 18.1343 75.9489C19.1954 73.3048 20.4309 70.1795 21.3496 67.4862C21.9529 65.7199 21.965 64.1272 22.8276 62.467Z" fill="#8F8E94"/>
<path d="M8.98902 80.8882C10.4428 79.2033 11.7056 77.377 12.8365 75.457C15.2938 71.2833 16.9916 66.8498 17.3615 61.9551C17.4616 60.6269 17.4949 59.3202 16.8946 58.0781C16.4989 57.2556 16.126 57.2034 15.5894 57.9274C13.226 61.128 12.0679 64.7883 11.7662 68.716C11.4433 72.9282 10.3003 76.882 8.50392 80.6637C8.37658 80.9312 8.21438 81.1818 8.06885 81.4401C8.11433 81.4846 8.1598 81.5292 8.20528 81.5723C8.46754 81.3463 8.76466 81.148 8.98902 80.8882Z" fill="#8F8E94"/>
<path d="M22.9834 57.7831C23.2093 57.7632 23.4564 57.4296 23.57 57.2389C23.8414 56.7885 24.5205 55.7232 24.7449 55.2466C25.8637 52.8623 26.226 52.0676 26.6838 49.6571C26.7368 49.3804 26.8627 47.5787 26.8111 47.3035C26.7778 47.1221 26.8066 46.2075 26.7853 46.0092C26.658 44.8178 26.4276 43.1421 26.3518 43.2912C26.1471 44.2228 25.3513 48.4842 25.2118 48.9746C24.6009 51.1175 24.0203 53.2682 23.4366 55.4173C23.2669 56.0414 23.1244 56.6717 22.9697 57.2989C23.0243 57.3343 22.9182 57.7893 22.9834 57.7831Z" fill="#8F8E94"/>
<path d="M61.2304 43.2886C61.4426 45.9281 61.9247 48.523 62.6766 51.0611C63.0541 52.3385 63.4709 53.6053 63.8863 54.872C64.62 57.1026 65.6281 59.1856 67.0122 61.0903C67.6579 61.9757 68.1355 62.9857 68.6903 63.9373C68.7176 63.9834 68.7585 64.0203 68.8571 64.1387C68.904 63.7128 68.9677 63.3746 68.9753 63.0364C69.0253 61.018 68.8737 57.9388 70.0986 56.3862C70.9885 55.2578 71.3068 53.4085 71.2462 52.3493C71.1309 50.3063 70.9581 49.3363 70.0986 47.4577C68.1082 43.1103 65.4689 43.0626 62.7569 42.0788C61.7655 41.7191 61.1455 42.2264 61.2304 43.2886Z" fill="#8F8E94"/>
<path d="M55.5349 32.0543C56.07 34.4416 57.7102 37.1565 58.9215 39.3056C59.8401 40.9366 59.9099 40.4739 61.447 41.1688C62.2383 41.5269 64.4167 41.879 65.1899 42.2741C65.8508 42.6123 66.8346 43.0458 67.4577 43.4593C67.5744 43.5377 67.9201 43.8682 68.0701 44.002C68.105 43.8621 68.1399 43.7913 68.1368 43.7237C68.0474 41.1488 68.2627 38.2771 67.3425 35.8513C66.8407 34.5293 65.199 32.663 64.0893 31.8144C62.2641 30.4217 60.8346 30.1065 58.4167 29.7299C58.1559 29.6884 57.7967 29.6653 57.5768 29.7975C56.9765 30.1603 56.4141 30.5877 55.8669 31.0289C55.5591 31.2779 55.4409 31.6377 55.5349 32.0543Z" fill="#8F8E94"/>
<path d="M70.6214 70.0504C70.0135 68.241 69.4071 66.4255 68.6582 64.6745C68.0003 63.1403 66.9907 61.8013 65.9205 60.5254C65.4369 59.9489 64.97 59.3555 64.4712 58.7929C64.3469 58.6545 64.0725 58.4916 63.9573 58.5439C63.7936 58.6176 63.6587 58.8667 63.6056 59.0665C63.2918 60.2533 63.4768 61.4078 64.0271 62.467C64.8912 64.1272 64.9018 65.7199 65.5051 67.4862C66.4238 70.1795 67.6608 73.3048 68.7204 75.9473C69.9316 78.9712 71.6143 81.6491 72.8362 84.6683C72.9286 84.9004 73.0317 85.128 73.1287 85.3555C73.1863 85.3432 73.2424 85.3309 73.2985 85.3186C73.3243 84.9927 73.3804 84.6668 73.3698 84.3424C73.2136 79.4293 72.1798 74.6852 70.6214 70.0504Z" fill="#8F8E94"/>
<path d="M69.9606 58.0785C69.3603 59.3222 69.3921 60.6273 69.4937 61.9555C69.8636 66.8502 71.5614 71.2852 74.0187 75.4589C75.1496 77.379 76.4124 79.2053 77.8662 80.8886C78.0905 81.1499 78.3877 81.3467 78.6499 81.5742C78.6954 81.5296 78.7409 81.4866 78.7864 81.442C78.6408 81.1838 78.4786 80.9332 78.3513 80.6657C76.5549 76.8825 75.4134 72.9286 75.089 68.7165C74.7873 64.7903 73.6276 61.1285 71.2658 57.9294C70.7292 57.2038 70.3563 57.2561 69.9606 58.0785Z" fill="#8F8E94"/>
<path d="M63.8716 57.7831C63.9368 57.7893 63.8307 57.3343 63.8853 57.2989C63.7306 56.6717 63.5881 56.0414 63.4184 55.4173C62.8347 53.2682 62.2541 51.1175 61.6432 48.9746C61.5037 48.4842 60.7079 44.2228 60.5032 43.2912C60.4274 43.1421 60.197 44.8178 60.0697 46.0092C60.0484 46.2075 60.0772 47.1221 60.0439 47.3035C59.9923 47.5787 60.1182 49.3804 60.1712 49.6571C60.6306 52.0676 60.9913 52.8623 62.1101 55.2466C62.3345 55.7232 63.0136 56.7885 63.285 57.2389C63.3986 57.4296 63.6457 57.7632 63.8716 57.7831Z" fill="#8F8E94"/>
<path d="M43.4042 35.5703C43.4754 35.4765 43.5163 35.4458 43.527 35.4089C43.7862 34.4281 44.1818 33.5227 44.867 32.7617C44.9504 32.671 44.9353 32.4912 44.9656 32.3513C44.8261 32.3374 44.6715 32.2805 44.5487 32.3205C43.8438 32.5542 43.1449 32.5711 42.4294 32.3543C42.2642 32.3036 42.0686 32.3605 41.8867 32.3666C41.9534 32.5388 41.9822 32.7448 42.0929 32.8801C42.6295 33.535 42.9903 34.2744 43.2283 35.0845C43.2723 35.2352 43.3344 35.3797 43.4042 35.5703Z" fill="#8F8E94"/>
<path d="M35.0325 14.8676C35.1401 15.0997 35.2599 15.3441 35.4387 15.5163C35.5539 15.627 35.7919 15.6685 35.9602 15.6408L36.6272 15.6593C36.7455 16.8814 36.8637 18.102 36.9592 19.3241C37.0047 19.8729 37.2472 20.2911 37.7111 20.5401C39.2953 21.3948 41.1341 22.6492 43.0351 22.6523C45.124 22.6585 47.1857 21.6562 48.9851 20.6861C49.6339 20.3356 49.9386 19.7346 49.978 18.9659C50.0356 17.876 50.1539 16.7891 50.257 15.7008L50.927 15.6208C51.782 15.9114 52.4475 13.5563 52.6976 13.0167C53.2085 11.9175 53.1024 11.4702 52.114 10.8015L51.1741 10.162C51.0483 10.0774 51.1423 7.78072 51.0998 7.46558C50.9846 6.59548 50.8088 5.65005 50.4707 4.83838C48.929 1.14277 45.0892 -0.701963 41.3084 0.317249C39.4226 0.826088 37.3261 2.67082 36.5529 4.52016C36.0269 5.77611 35.7692 7.10739 35.704 8.46173C35.6752 9.07203 35.6692 9.67772 35.7071 10.2726L34.7672 10.7892C34.2275 10.8599 33.6393 11.7746 33.8516 12.2634C34.2336 13.1381 34.6292 14.0036 35.0325 14.8676Z" fill="#8F8E94"/>
<path d="M29.6599 161.778C29.6205 161.689 29.4674 161.578 29.3961 161.597C29.3112 161.618 29.2066 161.76 29.1945 161.861C29.099 162.625 28.9838 163.389 28.958 164.156L28.1864 168.825L26.9797 170.084C25.6472 171.857 24.4815 172.991 22.6002 174.17C22.4001 174.296 21.0676 175.435 20.1959 176.547C19.4986 177.438 19.0984 178.31 19.8064 178.634C22.9534 180.049 25.5047 180.956 28.4578 178.539C29.2112 177.924 29.8176 177.343 30.7423 176.974C31.6715 176.602 32.9889 176.361 33.2739 175.209C33.3072 175.077 33.8287 172.971 33.8287 172.971L33.8333 172.908C33.8833 172.751 33.9318 172.593 33.9454 172.432C34.044 171.237 34.1213 170.043 34.2047 168.85C34.2668 167.953 33.9636 167.229 33.3527 166.553C32.0035 165.062 30.5012 163.68 29.6599 161.778Z" fill="#8F8E94"/>
<path d="M35.5903 135.338C35.5737 135.243 35.5191 132.363 35.4372 132.156C35.3584 132.389 34.9142 134.034 34.8854 134.159C34.7732 134.646 34.6702 135.133 34.561 135.622C33.988 138.214 33.4013 140.803 32.845 143.398C32.5509 144.777 32.2037 146.156 32.0658 147.553C31.846 149.771 31.7308 152.004 31.6671 154.233C31.6004 156.546 31.8278 158.841 32.4569 161.083C32.751 162.128 33.033 163.176 33.3195 164.223C33.2406 164.2 33.2088 164.156 33.1906 164.106C32.942 163.409 32.6691 162.717 32.4524 162.007C31.3958 158.548 31.085 154.974 31.0486 151.387C31.0107 147.422 30.8152 143.47 30.5332 139.519C30.4028 137.675 30.3255 135.822 30.3119 133.974C30.2952 131.801 30.5817 129.647 30.9455 127.506C31.0683 126.781 31.1623 126.051 31.279 125.258C31.1578 125.307 31.1183 125.31 31.1047 125.329C30.9622 125.524 30.8227 125.719 30.6863 125.918C28.2062 129.455 26.7661 133.439 26.2507 137.744C25.9035 140.638 25.7974 144.479 26.2507 147.37C26.901 151.516 27.0632 153.559 28.3806 157.545C28.8748 159.044 30.1633 161.567 31.1532 162.826C32.0855 164.013 33.0178 165.201 33.9546 166.383C34.0714 166.531 34.2108 166.655 34.4261 166.883C34.4685 166.608 34.5337 166.448 34.5095 166.305C34.2775 164.898 34.1669 163.453 33.7515 162.106C33.2558 160.505 33.1952 158.179 33.5241 156.531C34.3427 152.411 35.5767 150.706 36.4332 146.594C36.8107 144.78 36.9062 142.266 36.509 140.383C36.133 138.605 35.9163 137.127 35.5903 135.338Z" fill="#ED1C24"/>
<path d="M33.6642 121.215C33.4459 121.629 33.217 122.047 33.0791 122.491C32.5985 124.055 32.1164 125.618 31.7087 127.203C31.2114 129.128 30.8855 131.089 30.931 133.094C30.9795 135.246 31.0174 137.398 31.1129 139.551C31.1917 141.354 31.3433 143.154 31.4722 144.954C31.4858 145.148 31.5571 145.34 31.6025 145.532C31.645 145.534 31.6874 145.534 31.7314 145.535C31.7905 145.343 31.8633 145.152 31.9042 144.957C32.4681 142.319 33.0139 139.675 33.596 137.04C33.8886 135.71 34.2494 134.396 34.5738 133.076C34.7542 132.341 34.9876 131.614 35.0862 130.866C35.359 128.839 35.1862 126.805 34.9816 124.783C34.8618 123.614 34.5768 122.461 34.3418 121.305C34.3115 121.157 34.1539 120.977 34.0174 120.933C33.934 120.906 33.7324 121.085 33.6642 121.215Z" fill="#ED1C24"/>
<path d="M36.9978 104.972C36.972 105.116 36.9356 105.259 36.9235 105.402C36.7916 106.946 36.6794 108.489 36.5263 110.031C36.4126 111.191 36.3141 112.363 36.0928 113.505C35.7016 115.513 35.2181 117.502 34.7845 119.504C34.7421 119.703 34.7284 119.937 34.7891 120.128C35.6774 122.927 35.829 125.814 35.8078 128.719C35.8047 129.27 35.7744 129.819 35.7577 130.369C35.7987 130.374 35.8396 130.378 35.8805 130.383C37.5268 126.481 38.3939 122.395 38.591 118.157C38.8002 113.68 38.3955 109.271 37.1827 104.959C37.1206 104.964 37.0599 104.967 36.9978 104.972Z" fill="#8F8E94"/>
<path d="M35.9201 104.933C35.952 103.033 35.8944 101.122 35.476 99.2699C34.8226 96.3844 34.0328 93.5328 33.3355 90.6596C32.3986 86.7964 31.4966 82.9271 30.575 79.0609C30.4628 78.5889 30.3354 78.1216 30.1884 77.6604C30.155 77.5559 30.011 77.4882 29.917 77.4052C29.8519 77.5144 29.77 77.6158 29.7275 77.7342C29.6927 77.8295 29.6987 77.9433 29.6972 78.0493C29.6972 79.2484 29.72 80.4475 29.6942 81.6466C29.6624 83.1177 29.6366 84.592 29.5214 86.0585C29.3986 87.6312 29.1469 89.193 29.0014 90.7626C28.7164 93.8325 28.4299 96.9025 28.2146 99.977C28.0706 102.035 27.9387 104.106 27.9979 106.165C28.101 109.788 28.3647 113.41 28.5421 117.032C28.633 118.866 28.6982 120.703 28.7422 122.538C28.7771 124.054 28.7619 125.57 28.771 127.191C28.9059 127.044 28.9954 126.967 29.0575 126.873C30.0489 125.393 31.0722 123.931 32.0136 122.418C32.9004 120.992 33.7038 119.508 34.2041 117.891C35.1303 114.887 35.4441 111.769 35.764 108.661C35.8913 107.427 35.8989 106.177 35.9201 104.933Z" fill="#8F8E94"/>
<path d="M41.1025 87.2047C40.2339 86.4838 37.9524 85.4092 37.1217 84.6421C34.9114 82.6037 33.8078 81.9642 32.1737 79.4077C31.8023 78.8251 31.4506 78.2286 31.0898 77.6383C31.0413 77.6475 30.9943 77.6552 30.9473 77.6644C30.9776 77.9565 30.9943 78.2501 31.0413 78.5407C31.4854 81.3047 32.207 83.9965 33.0468 86.6621C34.9736 92.7851 36.5289 99.011 37.9448 105.272C38.1858 106.333 38.395 107.4 38.6179 108.467C38.7407 108.355 38.7877 108.236 38.8074 108.113C38.9923 106.976 39.6457 104.727 39.8003 103.586C40.6432 99.6259 40.6886 98.9803 41.1025 95.6659C41.4845 92.4053 41.5618 91.8381 41.5618 89.9995C41.5618 88.2916 41.5815 87.6029 41.1025 87.2047Z" fill="#8F8E94"/>
<path d="M25.1779 107.157C25.187 107.263 28.0582 118.542 28.087 118.648C28.1809 117.926 27.3381 106.982 27.3987 103.741C27.4836 99.2173 28.0339 95.3726 28.4402 90.8653C28.5114 90.0797 28.6266 89.2972 28.6964 88.5117C28.8495 86.8038 29.0738 85.0943 29.1072 83.3834C29.1511 81.185 29.045 78.9821 28.9859 76.7838C28.9647 75.9706 28.8919 75.1605 28.8419 74.3488C28.7919 74.3503 28.7418 74.3503 28.6918 74.3519C28.663 74.4641 28.6297 74.5763 28.6039 74.6901C28.3371 75.8738 28.1233 77.0728 27.7959 78.2396C26.6696 82.2319 25.2961 86.9037 24.949 91.0113C24.7186 93.7277 24.0546 96.9882 24.1834 99.3941C24.335 102.243 24.7186 103.975 25.1779 107.157Z" fill="#8F8E94"/>
<path d="M53.3605 121.215C53.2923 121.085 53.0907 120.906 53.0073 120.933C52.8708 120.977 52.7132 121.157 52.6829 121.305C52.4479 122.461 52.1629 123.614 52.0431 124.783C51.8385 126.805 51.6657 128.839 51.937 130.866C52.0371 131.614 52.2705 132.341 52.4509 133.076C52.7753 134.396 53.1361 135.71 53.4287 137.04C54.0108 139.675 54.5566 142.319 55.1205 144.957C55.1614 145.152 55.2342 145.343 55.2933 145.535C55.3373 145.534 55.3797 145.534 55.4222 145.532C55.4676 145.34 55.5389 145.148 55.5525 144.954C55.6814 143.154 55.833 141.354 55.9118 139.551C56.0073 137.398 56.0452 135.246 56.0937 133.094C56.1392 131.089 55.8133 129.128 55.316 127.203C54.9083 125.618 54.4262 124.055 53.9456 122.491C53.8077 122.047 53.5788 121.629 53.3605 121.215Z" fill="#ED1C24"/>
<path d="M58.2556 127.191C58.2632 125.568 58.2496 124.052 58.2844 122.538C58.3269 120.701 58.3936 118.866 58.483 117.032C58.6619 113.408 58.9242 109.788 59.0288 106.163C59.0879 104.105 58.956 102.035 58.812 99.977C58.5967 96.9025 58.3102 93.8325 58.0252 90.7626C57.8782 89.1915 57.6265 87.6296 57.5037 86.0585C57.3885 84.592 57.3643 83.1177 57.3324 81.6466C57.3067 80.4475 57.3294 79.2484 57.3279 78.0493C57.3279 77.9433 57.3339 77.8295 57.2991 77.7327C57.2551 77.6158 57.1748 77.5128 57.1096 77.4037C57.0156 77.4882 56.8701 77.5559 56.8367 77.6589C56.6912 78.1201 56.5639 78.5889 56.4517 79.0593C55.53 82.9256 54.6265 86.7964 53.6896 90.6581C52.9923 93.5312 52.204 96.3844 51.5507 99.2699C51.1323 101.122 51.0747 103.032 51.1065 104.933C51.1262 106.175 51.1338 107.427 51.2611 108.66C51.581 111.769 51.8948 114.886 52.8225 117.889C53.3228 119.508 54.1247 120.992 55.0115 122.418C55.9529 123.931 56.9777 125.391 57.9691 126.873C58.0313 126.967 58.1207 127.042 58.2556 127.191Z" fill="#8F8E94"/>
<path d="M51.2672 130.367C51.249 129.819 51.2202 129.268 51.2157 128.719C51.196 125.812 51.3476 122.925 52.2359 120.128C52.295 119.937 52.2829 119.703 52.2404 119.504C51.8069 117.502 51.3233 115.513 50.9322 113.504C50.7093 112.361 50.6123 111.19 50.4971 110.031C50.3455 108.489 50.2333 106.946 50.0999 105.402C50.0878 105.258 50.0514 105.115 50.0272 104.97C49.965 104.967 49.9044 104.964 49.8422 104.959C48.628 109.27 48.2232 113.68 48.4324 118.157C48.631 122.394 49.4981 126.481 51.1429 130.383C51.1853 130.378 51.2263 130.374 51.2672 130.367Z" fill="#8F8E94"/>
<path d="M53.0706 166.383C54.0074 165.199 54.9397 164.012 55.8735 162.826C56.8619 161.565 58.1504 159.044 58.6462 157.545C59.962 153.557 60.1257 151.516 60.776 147.37C61.2278 144.478 61.1217 140.638 60.776 137.743C60.2606 133.437 58.819 129.454 56.3404 125.917C56.2025 125.719 56.063 125.524 55.9205 125.328C55.9069 125.308 55.869 125.305 55.7462 125.258C55.8629 126.051 55.9584 126.78 56.0812 127.505C56.445 129.647 56.7315 131.8 56.7133 133.974C56.6997 135.822 56.6239 137.673 56.492 139.517C56.2101 143.47 56.0145 147.422 55.9766 151.387C55.9417 154.973 55.6295 158.546 54.5744 162.005C54.3576 162.715 54.0832 163.407 53.8346 164.106C53.8179 164.155 53.7861 164.2 53.7057 164.223C53.9922 163.176 54.2742 162.126 54.5683 161.082C55.1989 158.841 55.4248 156.546 55.3596 154.232C55.2944 152.003 55.1792 149.769 54.9609 147.553C54.8215 146.155 54.4758 144.775 54.1802 143.397C53.6239 140.801 53.0387 138.214 52.4642 135.62C52.3566 135.133 52.252 134.644 52.1398 134.158C52.111 134.034 51.6668 132.389 51.588 132.154C51.5076 132.363 51.4531 135.242 51.4349 135.338C51.1089 137.127 50.8922 138.604 50.5162 140.383C50.119 142.266 50.2161 144.778 50.5935 146.593C51.4485 150.706 52.6825 152.41 53.5026 156.53C53.83 158.178 53.7694 160.504 53.2752 162.106C52.8583 163.453 52.7492 164.898 52.5157 166.303C52.4915 166.447 52.5567 166.607 52.5991 166.881C52.8144 166.655 52.9554 166.53 53.0706 166.383Z" fill="#ED1C24"/>
<path d="M61.8464 107.157C62.3058 103.975 62.6893 102.243 62.8409 99.3941C62.9697 96.9882 62.3058 93.7277 62.0753 91.0113C61.7282 86.9037 60.3547 82.2319 59.2284 78.2396C58.901 77.0728 58.6872 75.8738 58.4204 74.6901C58.3946 74.5763 58.3613 74.4641 58.3325 74.3519C58.2825 74.3503 58.2324 74.3503 58.1824 74.3488C58.1324 75.1605 58.0596 75.9706 58.0384 76.7838C57.9793 78.9821 57.8732 81.185 57.9171 83.3834C57.9505 85.0943 58.1748 86.8038 58.3279 88.5117C58.3977 89.2972 58.5129 90.0797 58.5841 90.8653C58.9904 95.3726 59.5407 99.2173 59.6256 103.741C59.6862 106.982 58.8434 117.926 58.9373 118.648C58.9662 118.542 61.8373 107.263 61.8464 107.157Z" fill="#8F8E94"/>
<path d="M49.078 105.274C50.4954 99.0126 52.0493 92.7866 53.9775 86.6636C54.8174 83.9965 55.5389 81.3047 55.9831 78.5407C56.0286 78.2517 56.0468 77.9565 56.0771 77.666C56.0286 77.6567 55.9816 77.6475 55.9331 77.6383C55.5738 78.2286 55.2221 78.8251 54.8492 79.4077C53.215 81.9657 52.1129 82.6037 49.9012 84.6437C49.072 85.4092 46.7905 86.4853 45.9204 87.2063C45.4413 87.6029 45.4625 88.2931 45.4625 89.9995C45.4625 91.8396 45.5383 92.4069 45.9204 95.6674C46.3357 98.9803 46.3812 99.6259 47.2225 103.586C47.3772 104.728 48.0305 106.976 48.217 108.115C48.2367 108.238 48.2837 108.356 48.405 108.467C48.6293 107.401 48.8385 106.333 49.078 105.274Z" fill="#8F8E94"/>
<path d="M64.4234 174.17C62.5422 172.991 61.3779 171.856 60.0439 170.085L58.8372 168.825L58.0671 164.156C58.0414 163.389 57.9231 162.625 57.8291 161.861C57.817 161.761 57.7139 161.62 57.6275 161.597C57.5563 161.58 57.4032 161.69 57.3637 161.778C56.5224 163.681 55.0201 165.062 53.6709 166.554C53.06 167.229 52.7583 167.953 52.8205 168.849C52.9024 170.042 52.9812 171.238 53.0782 172.431C53.0918 172.594 53.1404 172.751 53.1904 172.909L53.1949 172.972C53.1949 172.972 53.7179 175.078 53.7498 175.211C54.0348 176.362 55.3521 176.602 56.2814 176.974C57.2061 177.343 57.814 177.924 58.5659 178.54C61.5189 180.955 64.0702 180.048 67.2173 178.634C67.9268 178.31 67.525 177.438 66.8277 176.548C65.9576 175.435 64.6235 174.296 64.4234 174.17Z" fill="#8F8E94"/>
<path d="M50.7075 48.1681C51.1623 50.4909 51.5989 52.8168 52.1294 55.1212C52.2765 55.7592 52.6555 56.3787 53.0526 56.9121C53.5741 57.6116 54.1957 58.2373 54.8126 58.8553C55.7722 59.8145 56.4923 60.9075 56.8455 62.2342C56.8819 62.3725 56.9395 62.5063 57.0244 62.7461C57.5413 62.0958 57.7187 61.4363 57.7687 60.7569L58.0689 57.5747C58.125 57.2227 58.1932 56.8722 58.2356 56.5186C58.5221 54.1158 58.56 51.7054 58.413 49.2919C58.3326 47.9913 58.225 46.6908 58.1052 45.3918C58.0522 44.823 57.8733 44.7092 57.367 44.9029L51.7641 47.049C51.6807 47.0536 51.5913 47.0628 51.4973 47.0782C50.9091 47.1689 50.5908 47.5717 50.7075 48.1681Z" fill="#8F8E94"/>
<path d="M29.6279 44.9376C29.6112 44.9314 29.5991 44.9284 29.584 44.9207L29.5339 44.9022C28.9367 44.6639 28.8154 44.9007 28.7199 45.8108C28.4379 48.4856 28.3318 51.1651 28.4713 53.8522C28.5258 54.9222 28.7184 56.378 28.8321 57.5525L28.8305 57.5724L29.1064 60.4963C29.1064 60.5209 29.1049 60.544 29.1049 60.5686C29.117 61.3172 29.2823 62.0336 29.8038 62.6777C29.8841 62.5793 29.9235 62.5501 29.9387 62.5117C29.9902 62.3687 30.0357 62.2242 30.0781 62.0782C30.3601 61.122 30.7815 60.2427 31.4683 59.5109C32.058 58.8853 32.6477 58.2611 33.2313 57.6309C34.1408 56.647 34.8079 55.5356 34.9989 54.172C35.0428 53.8569 35.1156 53.5463 35.1793 53.2327C35.5097 51.5832 35.8584 49.9368 36.1676 48.2827C36.3086 47.5248 35.9782 47.1359 35.2232 47.0559C35.1914 47.0513 35.1641 47.0529 35.1353 47.0513V47.0483L29.6279 44.9376Z" fill="#8F8E94"/>
<path d="M49.5658 26.4C48.9852 27.7482 47.9984 28.792 47.0418 29.8574C46.5476 30.4062 46.0261 30.9288 45.5274 31.4746C45.4592 31.5499 45.4577 31.6867 45.4243 31.7959C45.5319 31.8297 45.6456 31.9019 45.7457 31.8866C46.0261 31.845 46.302 31.7759 46.5779 31.7036C47.824 31.3823 49.0716 31.0656 50.3132 30.729C50.8983 30.5722 51.488 30.4215 52.0686 30.2478C52.0777 30.2463 52.0823 30.2447 52.0929 30.2432C52.8797 30.0188 54.2091 30.5783 54.9171 31.0318C55.3112 30.0142 57.2183 29.4238 57.2183 29.4238L55.2945 28.566C54.861 28.3785 54.5169 28.2401 54.1803 28.0818C52.8782 27.4684 51.5775 26.8504 50.2783 26.2278C49.9888 26.0895 49.722 26.0388 49.5658 26.4Z" fill="#8F8E94"/>
<path d="M42.5071 36.2674C42.3812 34.5533 41.5232 33.2789 39.8966 32.6656C38.2291 32.0368 36.551 31.4281 34.8501 30.8992C33.5828 30.5072 31.938 31.9015 31.509 33.0483C30.6449 35.3558 29.4822 37.5095 28.2922 39.654C28.0102 40.1629 27.8465 40.7439 27.6676 41.3035C27.5509 41.6725 27.6388 42.026 27.9314 42.3043C29.514 43.8139 31.2376 45.1283 33.269 45.9384C34.7955 46.5487 36.3963 46.6855 38.0366 46.4196C40.5424 46.0137 42.5283 43.5003 42.6299 41.0883C42.6966 39.4849 42.6238 37.8692 42.5071 36.2674Z" fill="#8F8E94"/>
<path d="M31.7446 31.0338C32.4525 30.5803 33.782 30.0207 34.5688 30.2436C34.5794 30.2467 34.5839 30.2482 34.5915 30.2498C35.1736 30.4235 35.7618 30.5741 36.3485 30.7309C37.59 31.0661 38.8376 31.3843 40.0837 31.7056C40.3596 31.7763 40.6355 31.847 40.916 31.8885C41.016 31.9039 41.1297 31.8316 41.2374 31.7978C41.204 31.6887 41.2025 31.5518 41.1343 31.4765C40.6355 30.9308 40.1141 30.4081 39.6199 29.8578C38.6618 28.794 37.6764 27.7502 37.0958 26.402C36.9397 26.0392 36.6729 26.0914 36.3833 26.2298C35.0842 26.8524 33.7835 27.4704 32.4798 28.0838C32.1448 28.2421 31.8007 28.3804 31.3671 28.568L29.4419 29.4258C29.4419 29.4258 31.3505 30.0146 31.7446 31.0338Z" fill="#8F8E94"/>
<path d="M12.8745 84.9978C12.9685 83.213 13.1655 81.4344 13.3232 79.6527C13.3459 79.3944 13.3687 79.1362 13.3914 78.8779L13.9538 75.9432C14.0023 75.7296 14.0448 75.5143 14.0842 75.2991C14.116 75.1193 14.0887 74.9286 14.0887 74.6458C12.4303 77.0424 10.8401 79.3391 9.2514 81.6358L8.15539 82.7073C7.4429 82.8087 6.77892 83.0854 6.25896 83.5804C5.20235 84.5873 4.18971 85.6388 3.16342 86.6765L2.17807 87.9063L2.1811 87.9094C1.48983 88.1923 0.804634 88.4982 0.119433 88.7964C0.0299928 88.8364 -0.0367084 89.1561 0.022413 89.276C0.290733 89.8202 0.778863 90.0616 1.38069 90.1584C2.32208 89.9478 3.28167 89.7357 4.23973 89.5112L5.07653 89.8387C5.05076 89.8786 5.0265 89.9171 4.9977 89.9617C4.95829 90.0262 4.9219 90.0923 4.88401 90.1584C4.10633 91.5543 3.31047 92.9424 2.55553 94.3506C2.19474 95.0254 1.52015 95.6649 1.56866 96.4812C1.58837 96.7964 1.82637 97.0254 2.01738 97.1546C2.10075 97.2114 2.40091 96.9932 2.56766 96.8563C2.71319 96.7349 2.82537 96.5627 2.92542 96.3967C3.66216 95.1653 4.39739 93.934 5.12201 92.6965C5.45551 92.1277 5.78295 91.5527 6.09372 90.9701L6.33778 91.2668C5.55405 92.6427 4.76273 94.017 4.01083 95.4113C3.48025 96.3936 3.00577 97.4082 2.51915 98.4136C2.24628 98.9824 2.56615 99.605 3.29531 99.5896C3.4469 99.4697 3.79102 99.3021 3.97596 99.0254C4.31856 98.5151 4.56718 97.9401 4.8552 97.3944C5.65258 95.8832 6.44845 94.3706 7.25037 92.864L7.52173 93.3452C6.93658 94.4121 6.35294 95.4805 5.80266 96.5673C5.407 97.3467 5.05227 98.1492 4.70513 98.9547C4.49744 99.4343 4.6839 99.7203 5.1599 99.7187C5.6162 99.7203 5.98457 99.5389 6.19529 99.1223C6.46664 98.5842 6.70464 98.0277 6.96993 97.4866C7.45503 96.4935 7.94012 95.5005 8.44493 94.5181L8.82846 94.9409C8.77389 95.0316 8.72386 95.1269 8.67838 95.2299C8.35701 95.9755 7.94619 96.6826 7.60055 97.419C7.53689 97.5558 7.55356 97.8755 7.61875 97.9032C7.78853 97.9739 8.00531 97.9447 8.19935 97.9217C8.27211 97.914 8.34336 97.8171 8.40097 97.748C9.30143 96.678 9.94873 95.4513 10.5657 94.2076L10.5748 94.2015L12.4258 91.7034C13.6537 90.1384 13.8113 88.7933 13.1762 86.9563C12.9624 86.3414 12.8411 85.645 12.8745 84.9978Z" fill="#8F8E94"/>
<path d="M86.7224 88.796C86.0372 88.4978 85.352 88.1918 84.6592 87.9074L84.6622 87.9059L83.6784 86.6761C82.6521 85.6384 81.6379 84.5869 80.5829 83.58C80.0629 83.085 79.3989 82.8068 78.6864 82.7068L77.5904 81.6354C76.0002 79.3387 74.4115 77.042 72.7531 74.6438C72.7531 74.9282 72.7258 75.1189 72.7576 75.2987C72.797 75.5139 72.8395 75.7291 72.888 75.9428L73.4504 78.8775C73.4731 79.1357 73.4959 79.394 73.5186 79.6523C73.6763 81.434 73.8733 83.2126 73.9658 84.9974C74.0007 85.6446 73.8779 86.3394 73.6657 86.9559C73.0305 88.7929 73.1866 90.138 74.416 91.703L76.2655 94.201L76.2761 94.2072C76.8931 95.4508 77.5404 96.6776 78.4408 97.7475C78.4985 97.8167 78.5697 97.9136 78.641 97.9212C78.8365 97.9443 79.0533 97.9735 79.2231 97.9028C79.2867 97.8751 79.3049 97.5554 79.2397 97.417C78.8956 96.6822 78.4848 95.9751 78.1634 95.2295C78.118 95.1265 78.0679 95.0312 78.0134 94.9405L78.3969 94.5177C78.9002 95.4985 79.3868 96.4931 79.8719 97.4847C80.1372 98.0273 80.3737 98.5838 80.6465 99.1219C80.8572 99.5385 81.2256 99.7183 81.6819 99.7168C82.1579 99.7183 82.3444 99.4339 82.1367 98.9528C81.7895 98.1488 81.4348 97.3463 81.0392 96.5669C80.4889 95.4801 79.9052 94.4101 79.3201 93.3448L79.5914 92.8636C80.3934 94.3701 81.1892 95.8813 81.9851 97.394C82.2746 97.9397 82.5217 98.5146 82.8643 99.025C83.0493 99.3017 83.3949 99.4677 83.5465 99.5892C84.2742 99.6046 84.5955 98.982 84.3211 98.4132C83.8361 97.4078 83.3616 96.3917 82.831 95.4109C82.0791 94.0166 81.2878 92.6422 80.5025 91.2648L80.7481 90.9697C81.0589 91.5523 81.3848 92.1273 81.7198 92.6961C82.4444 93.9336 83.1797 95.1649 83.9149 96.3947C84.0149 96.5623 84.1286 96.7345 84.2742 96.8559C84.4409 96.9927 84.7411 97.211 84.8244 97.1541C85.0139 97.025 85.2534 96.796 85.2716 96.4808C85.3217 95.6645 84.6456 95.025 84.2863 94.3502C83.5298 92.942 82.7355 91.5539 81.9563 90.158C81.9199 90.0919 81.8835 90.0258 81.8441 89.9612C81.8153 89.9167 81.7911 89.8782 81.7653 89.8383L82.6021 89.5093C83.5602 89.7337 84.5197 89.9474 85.4596 90.158C86.063 90.0612 86.5511 89.8198 86.8179 89.2756C86.877 89.1542 86.8118 88.8344 86.7224 88.796Z" fill="#8F8E94"/>
</svg>
