<svg width="20" height="20" viewBox="0 0 20 20" fill="none" xmlns="http://www.w3.org/2000/svg">
<path d="M18.3336 1.87584H15.6247V0.625391C15.6247 0.279682 15.345 0 14.9996 0C14.6542 0 14.3748 0.280021 14.3748 0.625391V1.8755H10.6249V0.625391C10.6249 0.279682 10.3452 0 9.99983 0C9.65444 0 9.37473 0.279682 9.37473 0.625391V1.8755H5.62484V0.625391C5.62484 0.279682 5.34514 0 4.99975 0C4.65401 0 4.37465 0.279682 4.37465 0.625391V1.8755H1.66669C0.745983 1.8755 0 2.62143 0 3.54174V18.3327C0 19.2541 0.745983 20 1.66669 20H18.334C19.254 20 20 19.2541 20 18.3327V3.54208C19.9997 2.62177 19.2537 1.87584 18.3336 1.87584ZM18.7498 18.3327C18.7498 18.563 18.5632 18.7492 18.3336 18.7492H1.66669C1.43643 18.7492 1.24951 18.5626 1.24951 18.3327V3.54208C1.24951 3.31217 1.43677 3.12594 1.66669 3.12594H4.37499V4.37605C4.37499 4.72176 4.65401 5.00076 5.00008 5.00076C5.34548 5.00076 5.62518 4.72176 5.62518 4.37605V3.12594H9.37507V4.37605C9.37507 4.72176 9.65478 5.00076 10.0002 5.00076C10.3456 5.00076 10.6253 4.72176 10.6253 4.37605V3.12594H14.3748V4.37605C14.3748 4.72176 14.6545 5.00076 14.9999 5.00076C15.3453 5.00076 15.625 4.72176 15.625 4.37605V3.12594H18.334C18.5636 3.12594 18.7501 3.31251 18.7501 3.54208V18.3327H18.7498Z" fill="#FF3F3F"/>
<path d="M6.87504 7.5H4.375V9.37482H6.87504V7.5Z" fill="#FF3F3F"/>
<path d="M6.87504 10.625H4.375V12.4998H6.87504V10.625Z" fill="#FF3F3F"/>
<path d="M6.87504 13.75H4.375V15.6248H6.87504V13.75Z" fill="#FF3F3F"/>
<path d="M11.25 13.75H8.74997V15.6248H11.25V13.75Z" fill="#FF3F3F"/>
<path d="M11.25 10.625H8.74997V12.4998H11.25V10.625Z" fill="#FF3F3F"/>
<path d="M11.25 7.5H8.74997V9.37482H11.25V7.5Z" fill="#FF3F3F"/>
<path d="M15.625 13.75H13.125V15.6248H15.625V13.75Z" fill="#FF3F3F"/>
<path d="M15.625 10.625H13.125V12.4998H15.625V10.625Z" fill="#FF3F3F"/>
<path d="M15.625 7.5H13.125V9.37482H15.625V7.5Z" fill="#FF3F3F"/>
</svg>
