<svg width="54" height="49" viewBox="0 0 54 49" fill="none" xmlns="http://www.w3.org/2000/svg">
<path d="M48.5936 5.76268H40.0634L36.7267 2.12995C36.2252 1.57937 35.6144 1.13945 34.9333 0.838277C34.2522 0.537108 33.5158 0.381318 32.771 0.380859H21.3616C19.8547 0.380859 18.4016 1.02668 17.379 2.12995L14.0692 5.76268H5.53904C2.57904 5.76268 0.157227 8.1845 0.157227 11.1445V43.4354C0.157227 46.3954 2.57904 48.8172 5.53904 48.8172H48.5936C51.5536 48.8172 53.9754 46.3954 53.9754 43.4354V11.1445C53.9754 8.1845 51.5536 5.76268 48.5936 5.76268ZM27.0663 40.7445C19.6394 40.7445 13.6118 34.7169 13.6118 27.29C13.6118 19.863 19.6394 13.8354 27.0663 13.8354C34.4932 13.8354 40.5209 19.863 40.5209 27.29C40.5209 34.7169 34.4932 40.7445 27.0663 40.7445Z" fill="white" fill-opacity="0.73"/>
</svg>
