<svg width="184" height="154" viewBox="0 0 184 154" fill="none" xmlns="http://www.w3.org/2000/svg">
<path d="M10.6606 116.8C12.1966 116.8 13.4713 117.339 14.4846 118.416C15.5086 119.493 16.0206 120.821 16.0206 122.4C16.0206 123.968 15.5086 125.296 14.4846 126.384C13.4713 127.461 12.1966 128 10.6606 128H6.26063V116.8H10.6606ZM10.6606 126.24C11.7166 126.24 12.5753 125.877 13.2366 125.152C13.9086 124.427 14.2446 123.509 14.2446 122.4C14.2446 121.28 13.9086 120.363 13.2366 119.648C12.5753 118.923 11.7166 118.56 10.6606 118.56H8.10063V126.24H10.6606ZM19.3141 121.344C19.7515 120.352 20.5728 119.856 21.7781 119.856V121.728C21.1168 121.685 20.5408 121.845 20.0501 122.208C19.5595 122.56 19.3141 123.147 19.3141 123.968V128H17.5861V120H19.3141V121.344ZM29.0159 120H30.7439V128H29.0159V126.848C28.3652 127.755 27.4319 128.208 26.2159 128.208C25.1172 128.208 24.1785 127.803 23.3999 126.992C22.6212 126.171 22.2319 125.173 22.2319 124C22.2319 122.816 22.6212 121.819 23.3999 121.008C24.1785 120.197 25.1172 119.792 26.2159 119.792C27.4319 119.792 28.3652 120.24 29.0159 121.136V120ZM24.6799 125.84C25.1599 126.32 25.7625 126.56 26.4879 126.56C27.2132 126.56 27.8159 126.32 28.2959 125.84C28.7759 125.349 29.0159 124.736 29.0159 124C29.0159 123.264 28.7759 122.656 28.2959 122.176C27.8159 121.685 27.2132 121.44 26.4879 121.44C25.7625 121.44 25.1599 121.685 24.6799 122.176C24.1999 122.656 23.9599 123.264 23.9599 124C23.9599 124.736 24.1999 125.349 24.6799 125.84ZM39.126 120H40.822V127.632C40.822 128.848 40.422 129.781 39.622 130.432C38.822 131.083 37.8513 131.408 36.71 131.408C34.8647 131.408 33.6007 130.763 32.918 129.472L34.406 128.608C34.822 129.429 35.6007 129.84 36.742 129.84C37.4887 129.84 38.07 129.643 38.486 129.248C38.9127 128.864 39.126 128.325 39.126 127.632V126.656C38.4753 127.584 37.5473 128.048 36.342 128.048C35.2113 128.048 34.2567 127.648 33.478 126.848C32.6993 126.037 32.31 125.061 32.31 123.92C32.31 122.779 32.6993 121.808 33.478 121.008C34.2567 120.197 35.2113 119.792 36.342 119.792C37.5473 119.792 38.4753 120.256 39.126 121.184V120ZM34.758 125.712C35.2487 126.192 35.8567 126.432 36.582 126.432C37.3073 126.432 37.91 126.192 38.39 125.712C38.8807 125.232 39.126 124.635 39.126 123.92C39.126 123.205 38.8807 122.608 38.39 122.128C37.91 121.648 37.3073 121.408 36.582 121.408C35.8567 121.408 35.2487 121.648 34.758 122.128C34.278 122.608 34.038 123.205 34.038 123.92C34.038 124.635 34.278 125.232 34.758 125.712ZM51.3001 121.664H49.3161V125.504C49.3161 125.835 49.3908 126.075 49.5401 126.224C49.6895 126.363 49.9081 126.443 50.1961 126.464C50.4948 126.475 50.8628 126.469 51.3001 126.448V128C49.9775 128.16 49.0281 128.048 48.4521 127.664C47.8761 127.269 47.5881 126.549 47.5881 125.504V121.664H46.1161V120H47.5881V118.272L49.3161 117.76V120H51.3001V121.664ZM57.0754 119.792C57.9927 119.792 58.734 120.085 59.2994 120.672C59.8647 121.259 60.1474 122.064 60.1474 123.088V128H58.4194V123.264C58.4194 122.667 58.2594 122.208 57.9394 121.888C57.6194 121.568 57.182 121.408 56.6274 121.408C56.0194 121.408 55.5287 121.6 55.1554 121.984C54.782 122.357 54.5954 122.933 54.5954 123.712V128H52.8674V116.8H54.5954V121.024C55.118 120.203 55.9447 119.792 57.0754 119.792ZM63.368 124.736C63.496 125.344 63.7893 125.813 64.248 126.144C64.7067 126.464 65.2667 126.624 65.928 126.624C66.8453 126.624 67.5333 126.293 67.992 125.632L69.416 126.464C68.6267 127.627 67.4587 128.208 65.912 128.208C64.6107 128.208 63.56 127.813 62.76 127.024C61.96 126.224 61.56 125.216 61.56 124C61.56 122.805 61.9547 121.808 62.744 121.008C63.5333 120.197 64.5467 119.792 65.784 119.792C66.9573 119.792 67.9173 120.203 68.664 121.024C69.4213 121.845 69.8 122.843 69.8 124.016C69.8 124.197 69.7787 124.437 69.736 124.736H63.368ZM63.352 123.328H68.056C67.9387 122.677 67.6667 122.187 67.24 121.856C66.824 121.525 66.3333 121.36 65.768 121.36C65.128 121.36 64.5947 121.536 64.168 121.888C63.7413 122.24 63.4693 122.72 63.352 123.328ZM80.7445 120H82.6325L79.5125 128H77.5125L74.3925 120H76.2805L78.5205 126.08L80.7445 120ZM85.3588 118.48C85.1454 118.693 84.8894 118.8 84.5908 118.8C84.2921 118.8 84.0308 118.693 83.8068 118.48C83.5934 118.256 83.4868 117.995 83.4868 117.696C83.4868 117.397 83.5934 117.141 83.8068 116.928C84.0201 116.704 84.2814 116.592 84.5908 116.592C84.9001 116.592 85.1614 116.704 85.3748 116.928C85.5881 117.141 85.6948 117.397 85.6948 117.696C85.6948 117.995 85.5828 118.256 85.3588 118.48ZM83.7268 128V120H85.4548V128H83.7268ZM93.7971 116.8H95.5251V128H93.7971V126.848C93.1465 127.755 92.2131 128.208 90.9971 128.208C89.8985 128.208 88.9598 127.803 88.1811 126.992C87.4025 126.171 87.0131 125.173 87.0131 124C87.0131 122.816 87.4025 121.819 88.1811 121.008C88.9598 120.197 89.8985 119.792 90.9971 119.792C92.2131 119.792 93.1465 120.24 93.7971 121.136V116.8ZM89.4611 125.84C89.9411 126.32 90.5438 126.56 91.2691 126.56C91.9945 126.56 92.5971 126.32 93.0771 125.84C93.5571 125.349 93.7971 124.736 93.7971 124C93.7971 123.264 93.5571 122.656 93.0771 122.176C92.5971 121.685 91.9945 121.44 91.2691 121.44C90.5438 121.44 89.9411 121.685 89.4611 122.176C88.9811 122.656 88.7411 123.264 88.7411 124C88.7411 124.736 88.9811 125.349 89.4611 125.84ZM98.8993 124.736C99.0273 125.344 99.3206 125.813 99.7793 126.144C100.238 126.464 100.798 126.624 101.459 126.624C102.377 126.624 103.065 126.293 103.523 125.632L104.947 126.464C104.158 127.627 102.99 128.208 101.443 128.208C100.142 128.208 99.0913 127.813 98.2913 127.024C97.4913 126.224 97.0913 125.216 97.0913 124C97.0913 122.805 97.4859 121.808 98.2753 121.008C99.0646 120.197 100.078 119.792 101.315 119.792C102.489 119.792 103.449 120.203 104.195 121.024C104.953 121.845 105.331 122.843 105.331 124.016C105.331 124.197 105.31 124.437 105.267 124.736H98.8993ZM98.8832 123.328H103.587C103.47 122.677 103.198 122.187 102.771 121.856C102.355 121.525 101.865 121.36 101.299 121.36C100.659 121.36 100.126 121.536 99.6993 121.888C99.2726 122.24 99.0006 122.72 98.8832 123.328ZM110.581 128.208C109.408 128.208 108.41 127.803 107.589 126.992C106.768 126.181 106.357 125.184 106.357 124C106.357 122.816 106.768 121.819 107.589 121.008C108.41 120.197 109.408 119.792 110.581 119.792C111.765 119.792 112.762 120.197 113.573 121.008C114.394 121.819 114.805 122.816 114.805 124C114.805 125.184 114.394 126.181 113.573 126.992C112.762 127.803 111.765 128.208 110.581 128.208ZM108.805 125.808C109.285 126.288 109.877 126.528 110.581 126.528C111.285 126.528 111.877 126.288 112.357 125.808C112.837 125.328 113.077 124.725 113.077 124C113.077 123.275 112.837 122.672 112.357 122.192C111.877 121.712 111.285 121.472 110.581 121.472C109.877 121.472 109.285 121.712 108.805 122.192C108.325 122.672 108.085 123.275 108.085 124C108.085 124.725 108.325 125.328 108.805 125.808ZM127.055 120V128H125.327V121.664H122.671V128H120.943V121.664H119.727V120H120.943V119.84C120.943 117.675 122.149 116.592 124.559 116.592C125.125 116.592 125.717 116.661 126.335 116.8V118.384C125.77 118.299 125.178 118.256 124.559 118.256C123.919 118.256 123.445 118.373 123.135 118.608C122.826 118.843 122.671 119.253 122.671 119.84V120H127.055ZM129.055 128V116.32H130.783V128H129.055ZM134.149 124.736C134.277 125.344 134.571 125.813 135.029 126.144C135.488 126.464 136.048 126.624 136.709 126.624C137.627 126.624 138.315 126.293 138.773 125.632L140.197 126.464C139.408 127.627 138.24 128.208 136.693 128.208C135.392 128.208 134.341 127.813 133.541 127.024C132.741 126.224 132.341 125.216 132.341 124C132.341 122.805 132.736 121.808 133.525 121.008C134.315 120.197 135.328 119.792 136.565 119.792C137.739 119.792 138.699 120.203 139.445 121.024C140.203 121.845 140.581 122.843 140.581 124.016C140.581 124.197 140.56 124.437 140.517 124.736H134.149ZM134.133 123.328H138.837C138.72 122.677 138.448 122.187 138.021 121.856C137.605 121.525 137.115 121.36 136.549 121.36C135.909 121.36 135.376 121.536 134.949 121.888C134.523 122.24 134.251 122.72 134.133 123.328ZM143.341 122.208C143.341 122.475 143.485 122.688 143.773 122.848C144.072 122.997 144.429 123.131 144.845 123.248C145.272 123.355 145.699 123.483 146.125 123.632C146.552 123.781 146.909 124.037 147.197 124.4C147.496 124.752 147.645 125.2 147.645 125.744C147.645 126.512 147.347 127.115 146.749 127.552C146.163 127.989 145.421 128.208 144.525 128.208C143.736 128.208 143.059 128.043 142.493 127.712C141.928 127.381 141.517 126.923 141.261 126.336L142.749 125.472C143.027 126.24 143.619 126.624 144.525 126.624C145.432 126.624 145.885 126.325 145.885 125.728C145.885 125.472 145.736 125.264 145.437 125.104C145.149 124.944 144.792 124.811 144.365 124.704C143.949 124.587 143.528 124.453 143.101 124.304C142.675 124.155 142.312 123.909 142.013 123.568C141.725 123.216 141.581 122.773 141.581 122.24C141.581 121.504 141.859 120.912 142.413 120.464C142.979 120.016 143.677 119.792 144.509 119.792C145.171 119.792 145.757 119.941 146.269 120.24C146.792 120.528 147.192 120.933 147.469 121.456L146.013 122.272C145.736 121.664 145.235 121.36 144.509 121.36C144.179 121.36 143.901 121.435 143.677 121.584C143.453 121.723 143.341 121.931 143.341 122.208ZM158.556 120H160.396L157.324 128.256C156.556 130.325 155.255 131.307 153.42 131.2V129.584C153.964 129.616 154.402 129.499 154.732 129.232C155.063 128.976 155.335 128.571 155.548 128.016L155.628 127.856L152.236 120H154.124L156.508 125.808L158.556 120ZM164.94 128.208C163.767 128.208 162.77 127.803 161.948 126.992C161.127 126.181 160.716 125.184 160.716 124C160.716 122.816 161.127 121.819 161.948 121.008C162.77 120.197 163.767 119.792 164.94 119.792C166.124 119.792 167.122 120.197 167.932 121.008C168.754 121.819 169.164 122.816 169.164 124C169.164 125.184 168.754 126.181 167.932 126.992C167.122 127.803 166.124 128.208 164.94 128.208ZM163.164 125.808C163.644 126.288 164.236 126.528 164.94 126.528C165.644 126.528 166.236 126.288 166.716 125.808C167.196 125.328 167.436 124.725 167.436 124C167.436 123.275 167.196 122.672 166.716 122.192C166.236 121.712 165.644 121.472 164.94 121.472C164.236 121.472 163.644 121.712 163.164 122.192C162.684 122.672 162.444 123.275 162.444 124C162.444 124.725 162.684 125.328 163.164 125.808ZM176.119 120H177.847V128H176.119V126.976C175.596 127.797 174.769 128.208 173.639 128.208C172.721 128.208 171.98 127.915 171.415 127.328C170.849 126.741 170.567 125.936 170.567 124.912V120H172.295V124.736C172.295 125.333 172.455 125.792 172.775 126.112C173.095 126.432 173.532 126.592 174.087 126.592C174.695 126.592 175.185 126.405 175.559 126.032C175.932 125.648 176.119 125.067 176.119 124.288V120ZM27.1615 140H28.9855L26.4735 148H24.7775L23.1135 142.608L21.4335 148H19.7375L17.2255 140H19.0495L20.6015 145.52L22.2815 140H23.9295L25.5935 145.52L27.1615 140ZM36.2815 140H38.0095V148H36.2815V146.848C35.6308 147.755 34.6975 148.208 33.4815 148.208C32.3828 148.208 31.4442 147.803 30.6655 146.992C29.8868 146.171 29.4975 145.173 29.4975 144C29.4975 142.816 29.8868 141.819 30.6655 141.008C31.4442 140.197 32.3828 139.792 33.4815 139.792C34.6975 139.792 35.6308 140.24 36.2815 141.136V140ZM31.9455 145.84C32.4255 146.32 33.0282 146.56 33.7535 146.56C34.4788 146.56 35.0815 146.32 35.5615 145.84C36.0415 145.349 36.2815 144.736 36.2815 144C36.2815 143.264 36.0415 142.656 35.5615 142.176C35.0815 141.685 34.4788 141.44 33.7535 141.44C33.0282 141.44 32.4255 141.685 31.9455 142.176C31.4655 142.656 31.2255 143.264 31.2255 144C31.2255 144.736 31.4655 145.349 31.9455 145.84ZM44.2316 139.792C45.149 139.792 45.8903 140.085 46.4556 140.672C47.021 141.259 47.3036 142.064 47.3036 143.088V148H45.5756V143.264C45.5756 142.667 45.4156 142.208 45.0956 141.888C44.7756 141.568 44.3383 141.408 43.7836 141.408C43.1756 141.408 42.685 141.6 42.3116 141.984C41.9383 142.357 41.7516 142.933 41.7516 143.712V148H40.0236V140H41.7516V141.024C42.2743 140.203 43.101 139.792 44.2316 139.792ZM53.6283 141.664H51.6443V145.504C51.6443 145.835 51.7189 146.075 51.8683 146.224C52.0176 146.363 52.2363 146.443 52.5243 146.464C52.8229 146.475 53.1909 146.469 53.6283 146.448V148C52.3056 148.16 51.3563 148.048 50.7803 147.664C50.2043 147.269 49.9163 146.549 49.9163 145.504V141.664H48.4443V140H49.9163V138.272L51.6443 137.76V140H53.6283V141.664ZM63.7376 141.664H61.7536V145.504C61.7536 145.835 61.8283 146.075 61.9776 146.224C62.127 146.363 62.3456 146.443 62.6336 146.464C62.9323 146.475 63.3003 146.469 63.7376 146.448V148C62.415 148.16 61.4656 148.048 60.8896 147.664C60.3136 147.269 60.0256 146.549 60.0256 145.504V141.664H58.5536V140H60.0256V138.272L61.7536 137.76V140H63.7376V141.664ZM68.7528 148.208C67.5794 148.208 66.5821 147.803 65.7608 146.992C64.9394 146.181 64.5288 145.184 64.5288 144C64.5288 142.816 64.9394 141.819 65.7608 141.008C66.5821 140.197 67.5794 139.792 68.7528 139.792C69.9368 139.792 70.9341 140.197 71.7448 141.008C72.5661 141.819 72.9768 142.816 72.9768 144C72.9768 145.184 72.5661 146.181 71.7448 146.992C70.9341 147.803 69.9368 148.208 68.7528 148.208ZM66.9768 145.808C67.4568 146.288 68.0488 146.528 68.7528 146.528C69.4568 146.528 70.0488 146.288 70.5288 145.808C71.0088 145.328 71.2488 144.725 71.2488 144C71.2488 143.275 71.0088 142.672 70.5288 142.192C70.0488 141.712 69.4568 141.472 68.7528 141.472C68.0488 141.472 67.4568 141.712 66.9768 142.192C66.4968 142.672 66.2568 143.275 66.2568 144C66.2568 144.725 66.4968 145.328 66.9768 145.808ZM83.9313 140H85.6593V148H83.9313V146.976C83.4086 147.797 82.5819 148.208 81.4513 148.208C80.5339 148.208 79.7926 147.915 79.2273 147.328C78.6619 146.741 78.3793 145.936 78.3793 144.912V140H80.1073V144.736C80.1073 145.333 80.2673 145.792 80.5873 146.112C80.9073 146.432 81.3446 146.592 81.8993 146.592C82.5073 146.592 82.9979 146.405 83.3713 146.032C83.7446 145.648 83.9313 145.067 83.9313 144.288V140ZM92.2079 139.792C93.3065 139.792 94.2452 140.203 95.0239 141.024C95.8025 141.835 96.1919 142.827 96.1919 144C96.1919 145.184 95.8025 146.181 95.0239 146.992C94.2452 147.803 93.3065 148.208 92.2079 148.208C90.9919 148.208 90.0585 147.76 89.4079 146.864V151.2H87.6799V140H89.4079V141.152C90.0585 140.245 90.9919 139.792 92.2079 139.792ZM90.1279 145.84C90.6079 146.32 91.2105 146.56 91.9359 146.56C92.6612 146.56 93.2639 146.32 93.7439 145.84C94.2239 145.349 94.4639 144.736 94.4639 144C94.4639 143.264 94.2239 142.656 93.7439 142.176C93.2639 141.685 92.6612 141.44 91.9359 141.44C91.2105 141.44 90.6079 141.685 90.1279 142.176C89.6479 142.656 89.4079 143.264 89.4079 144C89.4079 144.736 89.6479 145.349 90.1279 145.84ZM97.758 148V136.32H99.486V148H97.758ZM105.268 148.208C104.095 148.208 103.098 147.803 102.276 146.992C101.455 146.181 101.044 145.184 101.044 144C101.044 142.816 101.455 141.819 102.276 141.008C103.098 140.197 104.095 139.792 105.268 139.792C106.452 139.792 107.45 140.197 108.26 141.008C109.082 141.819 109.492 142.816 109.492 144C109.492 145.184 109.082 146.181 108.26 146.992C107.45 147.803 106.452 148.208 105.268 148.208ZM103.492 145.808C103.972 146.288 104.564 146.528 105.268 146.528C105.972 146.528 106.564 146.288 107.044 145.808C107.524 145.328 107.764 144.725 107.764 144C107.764 143.275 107.524 142.672 107.044 142.192C106.564 141.712 105.972 141.472 105.268 141.472C104.564 141.472 103.972 141.712 103.492 142.192C103.012 142.672 102.772 143.275 102.772 144C102.772 144.725 103.012 145.328 103.492 145.808ZM117.391 140H119.119V148H117.391V146.848C116.74 147.755 115.807 148.208 114.591 148.208C113.492 148.208 112.554 147.803 111.775 146.992C110.996 146.171 110.607 145.173 110.607 144C110.607 142.816 110.996 141.819 111.775 141.008C112.554 140.197 113.492 139.792 114.591 139.792C115.807 139.792 116.74 140.24 117.391 141.136V140ZM113.055 145.84C113.535 146.32 114.138 146.56 114.863 146.56C115.588 146.56 116.191 146.32 116.671 145.84C117.151 145.349 117.391 144.736 117.391 144C117.391 143.264 117.151 142.656 116.671 142.176C116.191 141.685 115.588 141.44 114.863 141.44C114.138 141.44 113.535 141.685 113.055 142.176C112.575 142.656 112.335 143.264 112.335 144C112.335 144.736 112.575 145.349 113.055 145.84ZM127.469 136.8H129.197V148H127.469V146.848C126.818 147.755 125.885 148.208 124.669 148.208C123.57 148.208 122.632 147.803 121.853 146.992C121.074 146.171 120.685 145.173 120.685 144C120.685 142.816 121.074 141.819 121.853 141.008C122.632 140.197 123.57 139.792 124.669 139.792C125.885 139.792 126.818 140.24 127.469 141.136V136.8ZM123.133 145.84C123.613 146.32 124.216 146.56 124.941 146.56C125.666 146.56 126.269 146.32 126.749 145.84C127.229 145.349 127.469 144.736 127.469 144C127.469 143.264 127.229 142.656 126.749 142.176C126.269 141.685 125.666 141.44 124.941 141.44C124.216 141.44 123.613 141.685 123.133 142.176C122.653 142.656 122.413 143.264 122.413 144C122.413 144.736 122.653 145.349 123.133 145.84ZM139.419 139.792C140.336 139.792 141.078 140.085 141.643 140.672C142.208 141.259 142.491 142.064 142.491 143.088V148H140.763V143.264C140.763 142.667 140.603 142.208 140.283 141.888C139.963 141.568 139.526 141.408 138.971 141.408C138.363 141.408 137.872 141.6 137.499 141.984C137.126 142.357 136.939 142.933 136.939 143.712V148H135.211V136.8H136.939V141.024C137.462 140.203 138.288 139.792 139.419 139.792ZM145.712 144.736C145.84 145.344 146.133 145.813 146.592 146.144C147.05 146.464 147.61 146.624 148.272 146.624C149.189 146.624 149.877 146.293 150.336 145.632L151.76 146.464C150.97 147.627 149.802 148.208 148.256 148.208C146.954 148.208 145.904 147.813 145.104 147.024C144.304 146.224 143.904 145.216 143.904 144C143.904 142.805 144.298 141.808 145.088 141.008C145.877 140.197 146.89 139.792 148.128 139.792C149.301 139.792 150.261 140.203 151.008 141.024C151.765 141.845 152.144 142.843 152.144 144.016C152.144 144.197 152.122 144.437 152.08 144.736H145.712ZM145.696 143.328H150.4C150.282 142.677 150.01 142.187 149.584 141.856C149.168 141.525 148.677 141.36 148.112 141.36C147.472 141.36 146.938 141.536 146.512 141.888C146.085 142.24 145.813 142.72 145.696 143.328ZM155.392 141.344C155.83 140.352 156.651 139.856 157.856 139.856V141.728C157.195 141.685 156.619 141.845 156.128 142.208C155.638 142.56 155.392 143.147 155.392 143.968V148H153.664V140H155.392V141.344ZM160.118 144.736C160.246 145.344 160.539 145.813 160.998 146.144C161.457 146.464 162.017 146.624 162.678 146.624C163.595 146.624 164.283 146.293 164.742 145.632L166.166 146.464C165.377 147.627 164.209 148.208 162.662 148.208C161.361 148.208 160.31 147.813 159.51 147.024C158.71 146.224 158.31 145.216 158.31 144C158.31 142.805 158.705 141.808 159.494 141.008C160.283 140.197 161.297 139.792 162.534 139.792C163.707 139.792 164.667 140.203 165.414 141.024C166.171 141.845 166.55 142.843 166.55 144.016C166.55 144.197 166.529 144.437 166.486 144.736H160.118ZM160.102 143.328H164.806C164.689 142.677 164.417 142.187 163.99 141.856C163.574 141.525 163.083 141.36 162.518 141.36C161.878 141.36 161.345 141.536 160.918 141.888C160.491 142.24 160.219 142.72 160.102 143.328Z" fill="#5E6269"/>
<path opacity="0.35" d="M59 66V18C59 17.2044 59.3161 16.4413 59.8787 15.8787C60.4413 15.3161 61.2044 15 62 15H122C122.796 15 123.559 15.3161 124.121 15.8787C124.684 16.4413 125 17.2044 125 18V60L109.121 44.1213C108.559 43.5587 107.796 43.2426 107 43.2426C106.204 43.2426 105.441 43.5587 104.879 44.1213L88.1213 60.8787C87.5587 61.4413 86.7956 61.7574 86 61.7573C85.2043 61.7574 84.4413 61.4413 83.8787 60.8787L76.1213 53.1213C75.5587 52.5587 74.7956 52.2426 74 52.2426C73.2043 52.2426 72.4413 52.5587 71.8787 53.1213L59 66Z" fill="#5E6269"/>
<path d="M81.5 39C83.9853 39 86 36.9853 86 34.5C86 32.0147 83.9853 30 81.5 30C79.0147 30 77 32.0147 77 34.5C77 36.9853 79.0147 39 81.5 39Z" fill="#5E6269" stroke="#5E6269" stroke-width="6" stroke-linecap="round" stroke-linejoin="round"/>
<path d="M125 36V78C125 79.6569 123.657 81 122 81H62C60.3431 81 59 79.6569 59 78V18C59 16.3431 60.3431 15 62 15H104" stroke="#5E6269" stroke-width="6" stroke-linecap="round" stroke-linejoin="round"/>
<path fill-rule="evenodd" clip-rule="evenodd" d="M128 6C128 4.34315 126.657 3 125 3C123.343 3 122 4.34315 122 6V12H116C114.343 12 113 13.3431 113 15C113 16.6569 114.343 18 116 18H122V24C122 25.6569 123.343 27 125 27C126.657 27 128 25.6569 128 24V18H134C135.657 18 137 16.6569 137 15C137 13.3431 135.657 12 134 12H128V6Z" fill="black"/>
<path d="M125 59.9995L109.121 44.1209C108.559 43.5583 107.796 43.2422 107 43.2422C106.204 43.2422 105.441 43.5583 104.879 44.1209L88.1213 60.8782C87.5587 61.4408 86.7956 61.7569 86 61.7569C85.2043 61.7569 84.4413 61.4408 83.8787 60.8782L76.1213 53.1209C75.5587 52.5583 74.7956 52.2422 74 52.2422C73.2043 52.2422 72.4413 52.5583 71.8787 53.1209L59 65.9996" stroke="#5E6269" stroke-width="6" stroke-linecap="round" stroke-linejoin="round"/>
</svg>
