<svg width="129" height="151" viewBox="0 0 129 151" fill="none" xmlns="http://www.w3.org/2000/svg">
<rect width="129" height="151" rx="20" fill="#5E6269"/>
<g clip-path="url(#clip0)">
<path d="M63.6543 48.2334C70.2723 48.2263 75.6354 43.161 75.6428 36.9104V32.1058C72.0179 31.3958 68.7127 29.6477 66.1776 27.0996C63.9744 29.2745 59.6909 31.879 51.6658 32.3164V36.9104C51.6732 43.161 57.0363 48.2263 63.6543 48.2334Z" fill="white" fill-opacity="0.6"/>
<path d="M63.7844 22.5836C64.0419 21.7569 64.7895 21.1502 65.6936 21.0343C66.6239 20.9161 67.5423 21.319 68.0469 22.0667C70.4599 25.4851 73.5388 26.884 75.6428 27.4558V18.7938C75.6384 15.0434 72.4205 12.0042 68.4497 12H58.8589C54.8881 12.0042 51.6702 15.0434 51.6658 18.7938V27.7822C61.4874 27.1883 63.5971 23.0045 63.7844 22.5836Z" fill="white" fill-opacity="0.6"/>
<path d="M63.5286 94.2324L59.0525 96.8367C53.8219 99.9099 47.3154 99.6141 42.3745 96.0784L45.7564 118.464C45.7737 118.578 45.7824 118.693 45.7824 118.809V139.241H81.4549V118.809C81.4549 118.693 81.4635 118.578 81.4808 118.464L84.9338 95.6074C79.6266 99.8421 72.252 100.138 66.6343 96.341L63.5286 94.2324Z" fill="white" fill-opacity="0.6"/>
<path d="M104.323 86.5042C104.053 85.6158 103.877 84.9702 103.826 84.1198C102.917 69.0244 92.2809 62.2327 92.0964 62.113C91.9119 61.9933 91.7997 61.9162 91.5698 61.7752L71.5178 50.9219C66.6627 53.8272 60.6437 53.8272 55.7886 50.9219L35.7769 61.8974C35.5968 61.9962 35.4074 62.1265 35.192 62.2337C34.9767 62.3409 23.9679 70.2385 23.4802 84.1198C23.4503 84.9711 23.2603 85.625 22.9425 86.4397C22.7622 87.1556 20.4166 92.6335 19.1132 104.866C19.0776 105.2 19.1484 105.538 19.0576 105.861C19.0161 106.009 15.0459 120.528 16.7047 139.241H23.9679C24.5779 135.714 25.8198 127.725 25.8198 121.106C25.8198 115.197 29.0759 107.983 32.2247 101.005C34.2522 96.5132 36.1666 92.2703 37.0137 88.8207C37.2188 87.9847 37.8714 87.3395 38.6979 87.1556C39.5243 86.9717 40.3817 87.2809 40.9103 87.9536L40.9145 87.959L42.6773 90.2032C46.0878 94.583 52.1334 95.7575 56.8871 92.9636L62.5488 89.6682C63.2807 89.2422 64.1861 89.274 64.8875 89.7504L69.1335 92.6335C73.55 95.618 79.4183 95.0258 83.1741 91.2167L86.561 87.7669C87.1274 87.1887 87.9554 86.9659 88.7281 87.1837C89.5009 87.4016 90.0987 88.0263 90.2927 88.8187C91.1397 92.2689 93.0542 96.5118 95.0816 101.003C98.2318 107.983 101.487 115.198 101.487 121.106C101.487 127.725 102.728 135.715 103.339 139.241H110.602C112.267 120.48 108.291 106.01 108.249 105.862C108.158 105.538 104.593 87.3927 104.323 86.5042Z" fill="white" fill-opacity="0.6"/>
</g>
<defs>
<clipPath id="clip0">
<rect width="98" height="127" fill="white" transform="translate(16 12)"/>
</clipPath>
</defs>
</svg>
