<svg width="256" height="159" viewBox="0 0 256 159" fill="none" xmlns="http://www.w3.org/2000/svg">
<path d="M236 1.0004C247.056 1.06978 256.07 9.98458 256 21.0004L255 139C254.93 150.016 246.056 159.07 235 159L20 158C8.94371 157.931 -0.0696033 149.016 3.46155e-05 138L1.00003 20.0004C1.06967 8.98458 9.94371 -0.0689866 21 0.000396153L236 1.0004Z" fill="#504F53"/>
<ellipse opacity="0.15" cx="129" cy="79.5" rx="28" ry="28.5" fill="white"/>
<ellipse cx="129.5" cy="80" rx="22.5" ry="23" fill="white"/>
<path d="M134 80.9996L126 84.9996C125.393 85.3474 125 84.7006 125 83.9996L125 75.9996C125 75.2997 125.391 74.6508 126 74.9996L134 78.9996C134.138 79.0775 133.92 79.8637 134 79.9996C134.08 80.1355 134 79.8425 134 79.9996C134 80.1568 134.08 79.8637 134 79.9996C133.92 80.1355 134.138 80.9217 134 80.9996Z" fill="#FF3F3F"/>
</svg>
