<svg width="20" height="21" viewBox="0 0 20 21" fill="none" xmlns="http://www.w3.org/2000/svg">
<circle cx="9.5" cy="11.5" r="7" stroke="white"/>
<path d="M9.4707 10.9746L10.877 8.66016H12.1426L10.0684 11.7949L12.207 15H10.9531L9.48828 12.627L8.02344 15H6.76367L8.90234 11.7949L6.82812 8.66016H8.08203L9.4707 10.9746Z" fill="white"/>
<ellipse opacity="0.15" cx="9.93564" cy="10.1904" rx="9.93564" ry="10.1904" fill="white"/>
<ellipse cx="9.93571" cy="10.1914" rx="7.89756" ry="8.15232" fill="white"/>
<path d="M11.5645 10.4568L9.13298 11.8677C8.92663 11.9873 8.6618 11.8425 8.6618 11.6013L8.6618 8.77961C8.6618 8.53886 8.92625 8.39364 9.13298 8.51364L11.5645 9.9245C11.6115 9.95129 11.6505 9.99003 11.6776 10.0368C11.7048 10.0835 11.7191 10.1366 11.7191 10.1907C11.7191 10.2447 11.7048 10.2978 11.6776 10.3445C11.6505 10.3913 11.6115 10.43 11.5645 10.4568Z" fill="#504F53"/>
</svg>
