<svg width="48" height="48" viewBox="0 0 48 48" fill="none" xmlns="http://www.w3.org/2000/svg">
<g filter="url(#filter0_d)">
<rect x="12" y="12" width="24" height="24" rx="6" fill="white"/>
</g>
<path d="M26.6887 32.0004H20.6986C19.4531 32.0004 18.437 31.084 18.437 29.9608V20.5977C18.437 20.3538 18.6582 20.1543 18.9286 20.1543C19.199 20.1543 19.4203 20.3538 19.4203 20.5977V29.9682C19.4203 30.6037 19.9939 31.121 20.6986 31.121H26.6887C27.3934 31.121 27.967 30.6037 27.967 29.9682V20.5977C27.967 20.3538 28.1882 20.1543 28.4587 20.1543C28.7291 20.1543 28.9503 20.3538 28.9503 20.5977V29.9682C28.9421 31.0914 27.9342 32.0004 26.6887 32.0004Z" fill="#504F53"/>
<path d="M22.0504 29.7899C21.78 29.7899 21.5587 29.5904 21.5587 29.3465V20.4786C21.5587 20.2347 21.78 20.0352 22.0504 20.0352C22.3208 20.0352 22.542 20.2347 22.542 20.4786V29.3465C22.542 29.5904 22.3208 29.7899 22.0504 29.7899Z" fill="#504F53"/>
<path d="M25.6557 29.7899C25.3853 29.7899 25.1641 29.5904 25.1641 29.3465V20.4786C25.1641 20.2347 25.3853 20.0352 25.6557 20.0352C25.9261 20.0352 26.1474 20.2347 26.1474 20.4786V29.3465C26.1474 29.5904 25.9261 29.7899 25.6557 29.7899Z" fill="#504F53"/>
<path d="M30.3511 18.6899C30.2692 18.6678 28.6959 18.2835 26.2376 18.1061C26.1229 16.9237 25.0248 16 23.6892 16C22.3453 16 21.239 16.9385 21.1407 18.1283C18.8463 18.3131 17.4369 18.6752 17.3549 18.6973C17.0927 18.7638 16.9452 19.0077 17.019 19.2442C17.0927 19.4807 17.3713 19.6137 17.6253 19.5472C17.6499 19.5398 20.1246 18.9116 23.7957 18.9116C27.4667 18.9116 30.0644 19.5398 30.0889 19.5472C30.1299 19.562 30.1791 19.562 30.2201 19.562C30.4331 19.562 30.6298 19.4289 30.6953 19.2368C30.7691 19.0003 30.6134 18.7565 30.3511 18.6899ZM23.8039 18.0175C23.2221 18.0175 22.6649 18.0322 22.1404 18.0544C22.2715 17.3893 22.9107 16.8794 23.6892 16.8794C24.4594 16.8794 25.1068 17.3819 25.2379 18.047C24.7872 18.0322 24.3037 18.0175 23.8039 18.0175Z" fill="#504F53"/>
<defs>
<filter id="filter0_d" x="0" y="0" width="48" height="48" filterUnits="userSpaceOnUse" color-interpolation-filters="sRGB">
<feFlood flood-opacity="0" result="BackgroundImageFix"/>
<feColorMatrix in="SourceAlpha" type="matrix" values="0 0 0 0 0 0 0 0 0 0 0 0 0 0 0 0 0 0 127 0"/>
<feOffset/>
<feGaussianBlur stdDeviation="6"/>
<feColorMatrix type="matrix" values="0 0 0 0 0 0 0 0 0 0 0 0 0 0 0 0 0 0 0.15 0"/>
<feBlend mode="normal" in2="BackgroundImageFix" result="effect1_dropShadow"/>
<feBlend mode="normal" in="SourceGraphic" in2="effect1_dropShadow" result="shape"/>
</filter>
</defs>
</svg>
