<svg width="72" height="72" viewBox="0 0 72 72" fill="none" xmlns="http://www.w3.org/2000/svg">
<g filter="url(#filter0_d)">
<circle cx="36" cy="36" r="24" fill="white"/>
</g>
<path d="M40.9554 49.9992H30.4722C28.2924 49.9992 26.5142 48.3955 26.5142 46.4297V30.0436C26.5142 29.6168 26.9014 29.2676 27.3746 29.2676C27.8479 29.2676 28.2351 29.6168 28.2351 30.0436V46.4426C28.2351 47.5549 29.2389 48.4602 30.4722 48.4602H40.9554C42.1887 48.4602 43.1925 47.5549 43.1925 46.4426V30.0436C43.1925 29.6168 43.5797 29.2676 44.053 29.2676C44.5262 29.2676 44.9134 29.6168 44.9134 30.0436V46.4426C44.8991 48.4085 43.1352 49.9992 40.9554 49.9992Z" fill="#FF3F3F"/>
<path d="M32.8387 46.1341C32.3655 46.1341 31.9783 45.7849 31.9783 45.3581V29.8385C31.9783 29.4117 32.3655 29.0625 32.8387 29.0625C33.312 29.0625 33.6992 29.4117 33.6992 29.8385V45.3581C33.6992 45.7849 33.312 46.1341 32.8387 46.1341Z" fill="#FF3F3F"/>
<path d="M39.1483 46.1341C38.675 46.1341 38.2878 45.7849 38.2878 45.3581V29.8385C38.2878 29.4117 38.675 29.0625 39.1483 29.0625C39.6215 29.0625 40.0087 29.4117 40.0087 29.8385V45.3581C40.0087 45.7849 39.6215 46.1341 39.1483 46.1341Z" fill="#FF3F3F"/>
<path d="M47.3656 26.7076C47.2222 26.6688 44.4688 25.9963 40.1666 25.6859C39.9658 23.6166 38.0441 22 35.7066 22C33.3547 22 31.4187 23.6425 31.2466 25.7247C27.2312 26.048 24.7646 26.6818 24.6212 26.7206C24.1623 26.837 23.9041 27.2637 24.0332 27.6776C24.1623 28.0915 24.6498 28.3243 25.0944 28.2079C25.1374 28.1949 29.4683 27.0956 35.893 27.0956C42.3176 27.0956 46.8637 28.1949 46.9067 28.2079C46.9784 28.2337 47.0645 28.2337 47.1362 28.2337C47.5091 28.2337 47.8532 28.0009 47.9679 27.6647C48.097 27.2508 47.8245 26.824 47.3656 26.7076ZM35.9073 25.5307C34.8891 25.5307 33.914 25.5566 32.9962 25.5954C33.2256 24.4314 34.3442 23.539 35.7066 23.539C37.0546 23.539 38.1875 24.4185 38.417 25.5824C37.6282 25.5566 36.7821 25.5307 35.9073 25.5307Z" fill="#FF3F3F"/>
<defs>
<filter id="filter0_d" x="0" y="0" width="72" height="72" filterUnits="userSpaceOnUse" color-interpolation-filters="sRGB">
<feFlood flood-opacity="0" result="BackgroundImageFix"/>
<feColorMatrix in="SourceAlpha" type="matrix" values="0 0 0 0 0 0 0 0 0 0 0 0 0 0 0 0 0 0 127 0"/>
<feOffset/>
<feGaussianBlur stdDeviation="6"/>
<feColorMatrix type="matrix" values="0 0 0 0 0 0 0 0 0 0 0 0 0 0 0 0 0 0 0.15 0"/>
<feBlend mode="normal" in2="BackgroundImageFix" result="effect1_dropShadow"/>
<feBlend mode="normal" in="SourceGraphic" in2="effect1_dropShadow" result="shape"/>
</filter>
</defs>
</svg>
